<svg width="192" height="34" viewBox="0 0 192 34" fill="none" xmlns="http://www.w3.org/2000/svg">
<path d="M17.2297 0.510742L20.8966 11.7964H32.763L23.1629 18.7712L26.8298 30.0568L17.2297 23.082L7.62955 30.0568L11.2965 18.7712L1.69635 11.7964H13.5627L17.2297 0.510742Z" fill="#FFD53F"/>
<path d="M56.8051 0.510742L60.6131 11.7964H72.9358L62.9665 18.7712L66.7744 30.0568L56.8051 23.082L46.8358 30.0568L50.6437 18.7712L40.6744 11.7964H52.9972L56.8051 0.510742Z" fill="#FFD53F"/>
<path d="M96.3805 0.510742L100.047 11.7964H111.914L102.314 18.7712L105.981 30.0568L96.3805 23.082L86.7804 30.0568L90.4473 18.7712L80.8472 11.7964H92.7136L96.3805 0.510742Z" fill="#FFD53F"/>
<path d="M135.956 0.510742L139.764 11.7964H152.087L142.117 18.7712L145.925 30.0568L135.956 23.082L125.987 30.0568L129.795 18.7712L119.825 11.7964H132.148L135.956 0.510742Z" fill="#FFD53F"/>
<path d="M175.531 0.510742L179.198 11.7964H191.064L181.464 18.7712L185.131 30.0568L175.531 23.082L165.931 30.0568L169.598 18.7712L159.998 11.7964H171.864L175.531 0.510742Z" fill="#FFD53F"/>
</svg>
