<svg width="42" height="52" viewBox="0 0 42 52" fill="none" xmlns="http://www.w3.org/2000/svg">
<path d="M21.3039 14.8004C19.3024 14.8004 16.2042 12.4982 12.9415 12.5814C8.63698 12.6369 4.68886 15.1056 2.46804 19.0166C-2.00101 26.8663 1.3165 38.4606 5.67589 44.8403C7.81445 47.9469 10.3369 51.4418 13.6818 51.3309C16.8897 51.1922 18.096 49.2228 21.9893 49.2228C25.8552 49.2228 26.9519 51.3309 30.3516 51.2477C33.8063 51.1922 35.9997 48.0856 38.1108 44.9512C40.551 41.3453 41.5654 37.8504 41.6202 37.6562C41.538 37.6285 34.903 35.0489 34.8207 27.2824C34.7659 20.7918 40.0574 17.6852 40.3042 17.5465C37.2883 13.0807 32.6547 12.5814 31.0371 12.4705C26.8148 12.1376 23.2779 14.8004 21.3039 14.8004ZM28.4324 8.25437C30.2146 6.09084 31.3935 3.06744 31.0645 0.0717773C28.5147 0.182728 25.4439 1.79151 23.6069 3.95504C21.9619 5.86894 20.5362 8.94781 20.92 11.888C23.744 12.1099 26.6503 10.4179 28.4324 8.25437Z" fill="black"/>
</svg>
