<svg width="97" height="89" viewBox="0 0 97 89" fill="none" xmlns="http://www.w3.org/2000/svg">
<path d="M56.2153 64.6757C57.406 56.6401 64.0761 49.312 64.0761 49.312L48.2642 21.5283L32.3794 49.312C38.572 56.2675 39.9637 62.3087 40.2781 64.6757" stroke="#C75BF7" stroke-width="2" stroke-linecap="round" stroke-linejoin="round"/>
<path d="M53.5894 8.18164C85.4433 11.7307 86.6603 44.3707 86.6603 44.3707" stroke="#C75BF7" stroke-width="2" stroke-linecap="round" stroke-linejoin="round"/>
<path d="M9.82471 44.441C9.82471 44.441 11.8045 11.4836 42.6365 8.1442" stroke="#C75BF7" stroke-width="2" stroke-linecap="round" stroke-linejoin="round"/>
<path d="M84.9484 8.0105H53.5894" stroke="#C75BF7" stroke-width="2" stroke-linecap="round" stroke-linejoin="round"/>
<path d="M42.6364 8.0105H12.0664" stroke="#C75BF7" stroke-width="2" stroke-linecap="round" stroke-linejoin="round"/>
<path d="M60.3992 73.404C61.4522 73.1452 62.3738 72.5092 62.9894 71.6164C63.6051 70.7237 63.8719 69.6362 63.7396 68.5599C63.6072 67.4836 63.0847 66.4932 62.2711 65.7763C61.4575 65.0593 60.4092 64.6656 59.3248 64.6697H36.9068C35.8227 64.6664 34.7749 65.0606 33.9619 65.7777C33.1488 66.4949 32.6269 67.4853 32.4949 68.5614C32.3629 69.6375 32.63 70.7246 33.2456 71.617C33.8612 72.5095 34.7826 73.1452 35.8354 73.404" stroke="#C75BF7" stroke-width="2" stroke-linecap="round" stroke-linejoin="round"/>
<path d="M48.2875 21.7959L48.1128 42.3477" stroke="#C75BF7" stroke-width="2" stroke-linecap="round" stroke-linejoin="round"/>
<path d="M48.0749 47.8591C49.5879 47.8591 50.8145 46.6325 50.8145 45.1195C50.8145 43.6064 49.5879 42.3798 48.0749 42.3798C46.5618 42.3798 45.3352 43.6064 45.3352 45.1195C45.3352 46.6325 46.5618 47.8591 48.0749 47.8591Z" stroke="#C75BF7" stroke-width="2" stroke-linecap="round" stroke-linejoin="round"/>
<path d="M15.1815 44.4586H4.22583V55.4144H15.1815V44.4586Z" stroke="#C75BF7" stroke-width="2" stroke-linecap="round" stroke-linejoin="round"/>
<path d="M92.0492 44.4586H81.0935V55.4144H92.0492V44.4586Z" stroke="#C75BF7" stroke-width="2" stroke-linecap="round" stroke-linejoin="round"/>
<path d="M95.9999 2.35083H85.0442V13.3065H95.9999V2.35083Z" stroke="#C75BF7" stroke-width="2" stroke-linecap="round" stroke-linejoin="round"/>
<path d="M11.9557 2.35083H1V13.3065H11.9557V2.35083Z" stroke="#C75BF7" stroke-width="2" stroke-linecap="round" stroke-linejoin="round"/>
<path d="M53.5922 1.71875H42.6365V12.6745H53.5922V1.71875Z" stroke="#C75BF7" stroke-width="2" stroke-linecap="round" stroke-linejoin="round"/>
<path d="M35.8296 87.8299V73.4038C36.1801 73.4905 36.5399 73.5345 36.901 73.5348H59.319C59.6811 73.5345 60.0418 73.4905 60.3933 73.4038V87.8299" stroke="#C75BF7" stroke-width="2" stroke-linecap="round" stroke-linejoin="round"/>
</svg>
