<svg width="88" height="86" viewBox="0 0 88 86" fill="none" xmlns="http://www.w3.org/2000/svg">
<path d="M79.5578 16.5742H81.988C83.2469 16.5749 84.4541 17.0754 85.344 17.9658C86.234 18.8562 86.7339 20.0636 86.7339 21.3225V65.5286C86.7339 66.7877 86.234 67.9953 85.3442 68.8861C84.4543 69.7769 83.2471 70.278 81.988 70.2792H5.74829C5.12453 70.2792 4.50689 70.1563 3.93065 69.9176C3.3544 69.6788 2.83085 69.3288 2.3899 68.8877C1.94895 68.4465 1.59924 67.9228 1.36076 67.3464C1.12227 66.77 0.999687 66.1523 1 65.5286V21.3225C0.999687 20.6989 1.12229 20.0813 1.3608 19.505C1.59932 18.9288 1.94906 18.4052 2.39004 17.9643C2.83102 17.5233 3.3546 17.1735 3.93083 16.935C4.50706 16.6965 5.12465 16.5739 5.74829 16.5742H8.18325" stroke="#54B0F9" stroke-width="2" stroke-linecap="round" stroke-linejoin="round"/>
<path d="M8.38306 48.8201V4.5186C8.38369 3.77581 8.6792 3.06366 9.20465 2.53866C9.73011 2.01366 10.4425 1.71875 11.1853 1.71875H76.8242C77.1921 1.71875 77.5564 1.79125 77.8962 1.9321C78.2361 2.07296 78.5449 2.27941 78.8049 2.53965C79.0649 2.79989 79.2711 3.10883 79.4116 3.44879C79.5522 3.78876 79.6244 4.1531 79.6241 4.52098V48.8201" stroke="#54B0F9" stroke-width="2" stroke-linecap="round" stroke-linejoin="round"/>
<path d="M2.67944 58.6436L86.0626 58.6437" stroke="#54B0F9" stroke-width="2" stroke-linecap="round" stroke-linejoin="round"/>
<path d="M8.38306 13.1044H79.6241" stroke="#54B0F9" stroke-width="2" stroke-linecap="round" stroke-linejoin="round"/>
<path d="M15.2039 6.09984H15.1824C14.3921 6.09984 13.7515 6.74049 13.7515 7.53076C13.7515 8.32104 14.3921 8.96169 15.1824 8.96169H15.2039C15.9941 8.96169 16.6348 8.32104 16.6348 7.53076C16.6348 6.74049 15.9941 6.09984 15.2039 6.09984Z" fill="#54B0F9"/>
<path d="M45.4775 63.3223H42.5918C41.8015 63.3223 41.1609 63.963 41.1609 64.7533C41.1609 65.5435 41.8015 66.1842 42.5918 66.1842H45.4775C46.2678 66.1842 46.9084 65.5435 46.9084 64.7533C46.9084 63.963 46.2678 63.3223 45.4775 63.3223Z" fill="#54B0F9"/>
<path d="M20.906 6.09984H20.8845C20.0943 6.09984 19.4536 6.74049 19.4536 7.53076C19.4536 8.32104 20.0943 8.96169 20.8845 8.96169H20.906C21.6963 8.96169 22.3369 8.32104 22.3369 7.53076C22.3369 6.74049 21.6963 6.09984 20.906 6.09984Z" fill="#54B0F9"/>
<path d="M26.6106 6.09984H26.5891C25.7988 6.09984 25.1582 6.74049 25.1582 7.53076C25.1582 8.32104 25.7988 8.96169 26.5891 8.96169H26.6106C27.4009 8.96169 28.0415 8.32104 28.0415 7.53076C28.0415 6.74049 27.4009 6.09984 26.6106 6.09984Z" fill="#54B0F9"/>
<path d="M72.0951 6.09984H50.9866C50.1963 6.09984 49.5557 6.74049 49.5557 7.53076C49.5557 8.32104 50.1963 8.96169 50.9866 8.96169H72.0951C72.8854 8.96169 73.5261 8.32104 73.5261 7.53076C73.5261 6.74049 72.8854 6.09984 72.0951 6.09984Z" fill="#54B0F9"/>
<path d="M48.5905 84.251V70.6374H39.5623V84.251" stroke="#54B0F9" stroke-width="2" stroke-linecap="round" stroke-linejoin="round"/>
<path d="M64.8137 84.2513H22.2712" stroke="#54B0F9" stroke-width="2" stroke-miterlimit="10" stroke-linecap="round"/>
<path d="M36.5604 25.1426L21.6931 33.2631L36.5604 41.2786" stroke="#54B0F9" stroke-width="2" stroke-linecap="round" stroke-linejoin="round"/>
<path d="M47.5765 19.3405L38.2278 47.2245" stroke="#54B0F9" stroke-width="2" stroke-linecap="round" stroke-linejoin="round"/>
<path d="M50.5215 41.2786L65.3506 33.2631L50.5215 25.1426" stroke="#54B0F9" stroke-width="2" stroke-linecap="round" stroke-linejoin="round"/>
</svg>
