<svg width="263" height="41" viewBox="0 0 263 41" fill="none" xmlns="http://www.w3.org/2000/svg">
<path d="M36.8264 5.62744C39.5539 7.92475 41.3478 10.8366 42.4248 14.205C42.5426 14.6045 42.7819 14.9574 43.1096 15.2147C47.7042 18.946 49.5479 23.7454 48.0846 29.4726C46.6214 35.1997 42.656 38.5769 36.8264 39.689C36.382 39.7684 35.9315 39.8085 35.4802 39.809C31.7313 39.8617 27.9825 39.9114 24.2336 39.7885C24.2336 36.9849 24.2268 34.1813 24.2131 31.3777C24.6053 31.3777 25.0004 31.3514 25.3837 31.3514C28.5151 31.3514 31.6465 31.3894 34.7749 31.3514C37.6487 31.3046 39.8875 29.1858 40.0045 26.5197C40.1333 23.5757 38.2867 21.334 35.3719 20.9594C34.8305 20.8921 34.7368 20.6667 34.7485 20.2014C34.7769 19.4701 34.7318 18.7377 34.6139 18.0153C34.1603 15.4049 32.8083 13.3329 30.8475 11.5975L36.8264 5.62744Z" fill="#4285F4"/>
<path d="M83.0089 18.0106C84.873 18.0106 86.7343 18.0311 88.5955 18.0106C89.1604 18.0106 89.333 18.2184 89.3828 18.7247C90.2607 27.3667 84.8204 31.7389 79.3273 32.7719C71.5399 34.2176 63.9983 28.9148 62.8628 21.0805C61.8151 13.8579 67.2818 6.72604 74.5688 5.772C78.6659 5.23645 82.3387 6.17001 85.5081 8.88873C85.9354 9.25162 86.0641 9.47403 85.5695 9.90422C84.949 10.437 84.3698 11.0162 83.8371 11.6367C83.48 12.0435 83.2693 11.9499 82.8976 11.6572C79.5907 9.04969 75.9443 8.57267 72.2247 10.4866C68.4436 12.4327 66.6321 15.7543 66.916 19.9919C67.2087 24.1358 69.3713 27.1501 73.2665 28.5607C77.071 29.9391 80.6618 29.2835 83.638 26.3395C84.7413 25.2449 85.195 23.8256 85.4905 22.3419C85.5988 21.8005 85.271 21.8239 84.9052 21.8239C82.4236 21.8239 79.9302 21.8063 77.4573 21.8414C76.8369 21.8414 76.6027 21.7039 76.6496 21.0513C76.6993 20.2639 76.6993 19.4741 76.6496 18.6867C76.6232 18.157 76.8222 18.0194 77.3285 18.0253C79.2307 18.0253 81.1213 18.0106 83.0089 18.0106Z" fill="#5F6368"/>
<path d="M5.51279 37.046C4.06945 36.0356 2.8505 34.7378 1.93243 33.2341C1.01436 31.7303 0.41698 30.053 0.17778 28.3075C-0.621156 22.8349 1.284 18.3954 5.66497 15.0124C5.76749 14.9199 5.86517 14.8223 5.95762 14.7197L6.06883 14.5412C6.74485 14.471 7.21309 13.9735 7.79546 13.7101C10.5384 12.4258 13.6221 12.0595 16.5896 12.6653L17.3212 12.8702C20.0295 13.6166 22.4477 15.1666 24.257 17.3156C24.6082 17.7282 24.5965 17.9652 24.2073 18.3398C22.867 19.6294 21.5491 20.9425 20.2536 22.2789C19.7063 22.8379 19.2176 23.4495 18.6557 24.0992C18.3192 23.5958 18.1436 23.309 17.9446 23.0369C17.2405 22.0644 16.2233 21.3639 15.0637 21.0528C13.9042 20.7417 12.6729 20.8391 11.5766 21.3285C10.4804 21.8179 9.5859 22.6697 9.04338 23.7406C8.50087 24.8116 8.34337 26.0367 8.59733 27.2101C8.96314 28.9367 10.0606 30.0751 11.5238 30.9179L5.51279 37.046Z" fill="#FBBC05"/>
<path d="M142.446 30.9924C139.681 33.8429 134.893 33.4566 131.946 30.5008C129.479 28.0279 128.727 25.0341 129.628 21.7213C130.524 18.4729 132.695 16.316 136.02 15.5054C138.18 14.9815 140.219 15.3298 141.966 16.8252C142.083 16.9277 142.195 17.0828 142.394 17.0389C142.581 15.8683 142.584 15.8683 143.857 15.8683C144.612 15.8683 145.592 15.5464 146.064 16.0058C146.535 16.4653 146.21 17.4486 146.213 18.2036C146.224 22.5973 146.224 26.987 146.213 31.3729C146.233 32.4992 146.12 33.6239 145.876 34.7237C145.077 38.019 142.97 39.9622 139.663 40.6294C135.83 41.4049 132.347 39.8158 130.386 36.4591C130.023 35.8387 129.93 35.4056 130.784 35.2183C130.893 35.1889 130.999 35.1497 131.1 35.1013C131.776 34.8262 132.446 34.3462 133.134 34.3228C133.898 34.2965 133.954 35.3032 134.422 35.7861C135.917 37.3371 137.682 37.6297 139.613 36.9801C141.489 36.3509 142.285 34.8437 142.42 32.9532C142.473 32.3855 142.446 31.7767 142.446 30.9924ZM133.254 24.1005C133.254 24.3522 133.24 24.6068 133.254 24.8585C133.344 25.9166 133.768 26.9189 134.464 27.7213C135.159 28.5237 136.091 29.085 137.126 29.3243C139.175 29.7575 141.091 28.8298 142.13 26.8895C142.646 25.8505 142.857 24.6867 142.739 23.5328C142.552 20.4131 139.853 18.2885 136.942 18.9616C134.788 19.4591 133.243 21.6013 133.254 24.1005Z" fill="#5F6368"/>
<path d="M16.5926 12.6774C13.6298 12.0747 10.5517 12.441 7.81306 13.7222C7.22776 13.9855 6.76245 14.4831 6.08643 14.5533C6.63076 12.057 7.85403 9.8943 9.4519 7.93061C11.0112 5.98496 12.9386 4.36572 15.1241 3.1655C17.3096 1.96528 19.7102 1.20761 22.1887 0.935814C24.6672 0.664019 27.175 0.883429 29.5686 1.5815C31.9623 2.27957 34.1948 3.44261 36.1387 5.00411C36.3787 5.19433 36.5923 5.41967 36.8206 5.62746L30.8534 11.5887L30.0164 11.0239C25.7467 8.21156 19.8146 8.93441 16.5926 12.6774Z" fill="#EA4335"/>
<path d="M258.837 31.2197C256.168 34.7871 250.622 34.9627 247.485 31.1816C244.049 27.0436 244.986 20.4267 249.446 17.5939C250.888 16.6818 252.613 16.3239 254.299 16.5865C255.986 16.8491 257.52 17.7144 258.617 19.022C258.71 19.1091 258.808 19.1912 258.91 19.2678C258.863 18.5684 258.793 17.9743 258.79 17.3773C258.79 14.9834 258.79 12.5896 258.79 10.1957C258.79 9.71866 258.869 9.44065 259.428 9.50503C260.23 9.59282 261.251 9.1597 261.769 9.68647C262.229 10.1401 261.901 11.1497 261.901 11.8901C261.901 18.7616 261.901 25.6447 261.921 32.5073C261.921 33.1629 261.822 33.5141 261.061 33.4292C260.394 33.356 259.533 33.6194 259.091 33.2887C258.649 32.958 259.012 32.0274 258.913 31.3689C258.892 31.3169 258.867 31.2669 258.837 31.2197ZM248.568 25.3842C248.541 25.9718 248.614 26.5595 248.784 27.1226C249.41 29.2384 250.745 30.6636 252.972 31.0353C253.908 31.2295 254.881 31.1279 255.757 30.7446C256.632 30.3613 257.367 29.7153 257.859 28.896C259.323 26.666 259.361 24.2341 258.073 21.9339C256.258 18.6913 252.009 18.4718 249.729 21.41C248.843 22.5514 248.544 23.8595 248.568 25.3842Z" fill="#5F6368"/>
<path d="M90.7556 24.1475C90.7556 19.1227 94.5367 15.3241 99.5644 15.3036C104.592 15.2831 108.467 19.1081 108.467 24.1475C108.467 29.1226 104.616 32.9592 99.6083 32.9592C94.601 32.9592 90.7585 29.1489 90.7556 24.1475ZM104.534 24.645C104.618 20.9752 101.973 18.3998 99.0259 18.8564C96.8808 19.1871 95.4644 20.4221 94.8937 22.4648C94.2703 24.686 94.7093 26.7316 96.5355 28.2885C98.0163 29.5469 99.7546 29.8249 101.511 29.0143C103.524 28.0924 104.478 26.4214 104.534 24.645Z" fill="#5F6368"/>
<path d="M127.703 24.1358C127.703 29.1665 123.931 32.9446 118.894 32.9592C113.858 32.9739 110.027 29.1314 110.036 24.0773C110.036 19.0788 113.878 15.2978 118.909 15.2978C123.94 15.2978 127.703 19.0964 127.703 24.1358ZM123.808 24.0773C123.79 20.8581 121.212 18.4087 118.315 18.8535C117.217 18.998 116.198 19.5015 115.417 20.2853C114.635 21.0692 114.134 22.0896 113.993 23.1876C113.624 25.5786 114.707 27.87 116.702 28.9031C120.039 30.6327 123.826 28.0603 123.808 24.0773Z" fill="#5F6368"/>
<path d="M154.574 25.0302C154.63 20.8541 157.129 17.4623 160.787 16.5902C164.864 15.6215 168.475 17.4681 170.219 21.3926C170.913 22.9553 170.913 22.9524 169.341 23.605C166.169 24.9131 163.008 26.2388 159.818 27.5236C159.087 27.8162 159.198 28.0825 159.558 28.5713C161.387 31.0471 165.022 31.1437 167.099 28.6883C167.629 28.0621 167.945 28.103 168.495 28.542C169.027 28.9613 169.591 29.3362 170.184 29.6628C170.705 29.9555 170.643 30.1955 170.313 30.6081C169.146 32.0735 167.551 33.1381 165.749 33.6533C163.948 34.1685 162.031 34.1086 160.266 33.4819C156.769 32.2499 154.524 28.9107 154.574 25.0302ZM163.061 19.7859C160.758 19.7859 158.554 21.8871 158.481 24.1435C158.481 24.5941 158.481 24.8488 159.066 24.6029C161.293 23.6577 163.529 22.7387 165.771 21.8286C166.303 21.615 166.207 21.3545 165.917 21.0238C165.563 20.6148 165.123 20.2894 164.628 20.0713C164.133 19.8531 163.596 19.7477 163.055 19.7625L163.061 19.7859Z" fill="#5F6368"/>
<path d="M191.141 8.99591C194.386 9.01932 197.21 10.0436 199.499 12.4199C199.9 12.8384 199.874 13.0725 199.47 13.4237C198.937 13.8832 198.513 14.6353 197.913 14.7992C197.313 14.963 196.944 14.0383 196.412 13.6578C193.608 11.6678 190.576 11.4688 187.492 12.7038C184.407 13.9388 182.537 16.3531 182.042 19.6864C181.574 22.8383 182.116 25.7589 184.384 28.1528C188.001 31.9572 194.041 31.9572 197.846 28.106C198.407 27.5412 198.703 27.5704 199.122 28.1352C199.211 28.2404 199.309 28.3382 199.414 28.4279C200.728 29.739 200.769 29.7916 199.353 30.9476C195.285 34.2663 190.693 34.9247 185.952 32.8703C181.211 30.8159 178.87 26.9646 178.7 21.8052C178.466 14.7084 183.427 10.4592 187.688 9.4144C188.817 9.13314 189.977 8.99257 191.141 8.99591Z" fill="#5F6368"/>
<path d="M217.506 16.5435C222.423 16.5435 225.876 20.1548 225.876 25.2821C225.876 30.2834 222.329 33.9445 217.48 33.9591C212.63 33.9738 209.016 30.2776 208.993 25.2557C208.969 20.2338 212.54 16.5435 217.506 16.5435ZM212.186 25.1679C212.186 25.4781 212.162 25.7883 212.186 26.0956C212.272 27.1825 212.68 28.2192 213.357 29.0734C214.035 29.9277 214.951 30.5608 215.99 30.8922C216.998 31.1836 218.071 31.1626 219.067 30.8319C220.062 30.5011 220.935 29.8763 221.568 29.0397C223.26 26.8448 223.157 23.2072 221.319 21.1381C220.551 20.2203 219.472 19.618 218.287 19.4466C214.84 18.9725 212.174 21.4688 212.186 25.1796V25.1679Z" fill="#5F6368"/>
<path d="M5.51318 37.0463C7.52467 35.0075 9.53517 32.9687 11.5447 30.9299C12.6136 31.2741 13.7358 31.4228 14.8575 31.3689C17.9772 31.3689 21.0939 31.3689 24.2223 31.3689C24.2223 34.1725 24.2291 36.9761 24.2428 39.7797C20.2686 39.806 16.2915 39.9436 12.3261 39.7124C9.82953 39.5701 7.4432 38.6363 5.51318 37.0463Z" fill="#34A853"/>
<path d="M239.776 31.2754C237.877 33.5815 235.536 34.395 232.72 33.7512C230.361 33.2098 228.726 31.2227 228.439 28.583C228.146 25.8614 228.351 23.1251 228.298 20.3888C228.281 19.4874 228.316 18.5861 228.298 17.6847C228.284 17.2253 228.407 17.0175 228.907 17.0467C229.721 17.0936 230.774 16.7892 231.289 17.1901C231.804 17.5911 231.456 18.7207 231.465 19.5313C231.491 21.8725 231.465 24.2137 231.465 26.5549C231.454 27.0619 231.493 27.5687 231.582 28.068C231.874 29.5136 232.609 30.5643 234.084 30.9476C235.737 31.3778 237.221 31.094 238.392 29.7565C239.387 28.6152 239.756 27.2544 239.758 25.7765C239.758 23.1573 239.776 20.5381 239.758 17.9188C239.758 17.2926 239.864 16.9794 240.575 17.0643C241.286 17.1492 242.24 16.7717 242.697 17.2048C243.153 17.6379 242.84 18.589 242.843 19.3119C242.858 23.7338 242.843 28.1557 242.866 32.5748C242.866 33.2918 242.667 33.5317 241.971 33.4352C241.274 33.3386 240.481 33.7132 240.013 33.2801C239.545 32.8469 239.969 32.0304 239.776 31.2754Z" fill="#5F6368"/>
<path d="M152.739 19.5499C152.739 23.5739 152.739 27.6007 152.739 31.6276C152.739 32.1983 152.619 32.4324 152.002 32.3914C151.185 32.3299 150.366 32.3299 149.549 32.3914C148.806 32.4558 148.827 32.0519 148.827 31.5281C148.827 23.9543 148.827 16.3805 148.827 8.80672C148.827 8.08095 148.516 7.14739 148.958 6.68793C149.4 6.22847 150.345 6.55039 151.068 6.54161C152.716 6.52112 152.716 6.54161 152.716 8.13948L152.739 19.5499Z" fill="#5F6368"/>
<path d="M206.423 21.4921C206.423 25.2088 206.423 28.9225 206.44 32.6362C206.44 33.2742 206.276 33.4937 205.641 33.4264C204.918 33.3474 203.988 33.719 203.514 33.283C203.04 32.8469 203.359 31.9017 203.356 31.1818C203.356 24.2606 203.356 17.3365 203.329 10.4036C203.329 9.64856 203.525 9.39103 204.266 9.49053C204.957 9.58418 205.864 9.19788 206.294 9.64856C206.724 10.0992 206.414 10.9918 206.417 11.6971C206.431 14.9631 206.423 18.2291 206.423 21.4921Z" fill="#5F6368"/>
<path d="M6.08027 14.5475L5.96948 14.7253L6.08027 14.5475Z" fill="#81ABE0"/>
</svg>
