<svg width="127" height="43" viewBox="0 0 127 43" fill="none" xmlns="http://www.w3.org/2000/svg">
<path d="M122.75 25.9483L126.27 28.2949C125.127 29.9777 122.395 32.8648 117.671 32.8648C111.804 32.8648 107.435 28.3259 107.435 22.5519C107.435 16.4075 111.851 12.2391 117.177 12.2391C122.534 12.2391 125.158 16.5 126.008 18.8003L126.471 19.9737L112.669 25.6858C113.719 27.7547 115.355 28.8045 117.671 28.8045C119.987 28.8045 121.592 27.662 122.75 25.9483ZM111.928 22.228L121.144 18.3991C120.635 17.1178 119.122 16.2071 117.316 16.2071C115.016 16.2071 111.82 18.2449 111.928 22.228Z" fill="#FF302F"/>
<path d="M100.781 1.72577H105.227V31.9232H100.781V1.72552V1.72577Z" fill="#20B15A"/>
<path d="M93.7717 13.0419H98.0635V31.3827C98.0635 38.9936 93.571 42.1276 88.2601 42.1276C83.2582 42.1276 80.2479 38.7622 79.1208 36.0297L83.0575 34.393C83.7675 36.0758 85.4812 38.0675 88.2601 38.0675C91.6719 38.0675 93.7717 35.9523 93.7717 32.0003V30.5183H93.6173C92.5983 31.7532 90.6531 32.8647 88.183 32.8647C83.0265 32.8647 78.3022 28.3721 78.3022 22.5829C78.3022 16.7625 83.0265 12.2239 88.183 12.2239C90.6377 12.2239 92.5983 13.32 93.6173 14.5242H93.7717V13.0422V13.0419ZM94.0802 22.5829C94.0802 18.9394 91.6565 16.284 88.5689 16.284C85.4502 16.284 82.8258 18.9394 82.8258 22.5829C82.8258 26.1799 85.4502 28.789 88.5689 28.789C91.6568 28.8046 94.0805 26.1799 94.0805 22.5829H94.0802Z" fill="#3686F7"/>
<path d="M53.8947 22.5057C53.8947 28.4495 49.2634 32.8184 43.582 32.8184C37.9009 32.8184 33.2693 28.4342 33.2693 22.5057C33.2693 16.5311 37.9009 12.1776 43.582 12.1776C49.2634 12.1776 53.8947 16.5311 53.8947 22.5057ZM49.3868 22.5057C49.3868 18.8007 46.7004 16.2531 43.582 16.2531C40.4636 16.2531 37.7772 18.8007 37.7772 22.5057C37.7772 26.1799 40.4636 28.7583 43.582 28.7583C46.7006 28.7583 49.3868 26.1799 49.3868 22.5057Z" fill="#FF302F"/>
<path d="M76.4189 22.5519C76.4189 28.4957 71.7873 32.8646 66.1062 32.8646C60.4248 32.8646 55.7935 28.4954 55.7935 22.5519C55.7935 16.5773 60.4248 12.2391 66.1062 12.2391C71.7873 12.2391 76.4189 16.5619 76.4189 22.5519ZM71.8954 22.5519C71.8954 18.8469 69.2092 16.2992 66.0906 16.2992C62.9722 16.2992 60.2858 18.8469 60.2858 22.5519C60.2858 26.2261 62.9722 28.8045 66.0906 28.8045C69.2246 28.8045 71.8954 26.2107 71.8954 22.5519Z" fill="#FFBA40"/>
<path d="M16.3183 28.3411C9.84954 28.3411 4.78599 23.1229 4.78599 16.6542C4.78599 10.1857 9.84954 4.96751 16.3183 4.96751C19.8074 4.96751 22.3545 6.34145 24.238 8.1015L27.3412 4.99849C24.7168 2.48208 21.2123 0.567383 16.3183 0.567383C7.45679 0.567631 0 7.79295 0 16.6542C0 25.5159 7.45679 32.741 16.3183 32.741C21.1042 32.741 24.7168 31.1663 27.542 28.233C30.4443 25.3305 31.3396 21.2548 31.3396 17.951C31.3396 16.9166 31.2162 15.8515 31.0772 15.0641H16.3183V19.356H26.8317C26.5229 22.0424 25.6739 23.8795 24.4234 25.1298C22.9104 26.6584 20.5176 28.3411 16.3183 28.3411Z" fill="#3686F7"/>
</svg>
