<svg width="49" height="59" viewBox="0 0 49 59" fill="none" xmlns="http://www.w3.org/2000/svg">
<path d="M13.0279 27.2532L10.6283 11.4253L0.907227 5.46417L3.80303 20.3465L13.0281 27.2532H13.0279ZM15.3029 44.2733L13.7722 33.0499L5.12639 25.9377L7.36023 37.0378L15.3029 44.2733ZM8.43585 41.7656L9.96653 50.1931L17.33 57.799L16.2958 49.2066L8.43585 41.7656ZM30.4021 39.1753L26.6171 36.3799C26.6171 36.3799 26.5632 37.381 26.462 37.4489L23.7006 39.3811L26.7204 41.8477L26.8964 44.6537L30.4849 47.5623L30.4023 39.1755L30.4021 39.1753ZM41.8405 30.9738L41.1578 38.8774L38.6138 37.2125C38.6138 37.2125 38.8942 33.2165 38.8928 33.2144C38.8782 33.1876 33.9908 29.9254 33.9908 29.9254L34.1459 26.2871L41.8405 30.9738Z" fill="#004711"/>
<path d="M25.7279 20.7164L25.0247 5.99854L10.6287 11.4252L13.0278 27.2531L25.7279 20.7164ZM26.3898 37.4076L25.8106 26.1842L13.7726 33.0496L15.5514 44.5609L26.3898 37.4076ZM26.5966 41.971L16.2959 49.2065L17.5785 58.0453L26.9688 50.6043L26.5966 41.971ZM30.568 39.1343L30.7332 47.6855L38.1796 41.6833L38.5517 33.5431L30.568 39.1343ZM48.3045 26.7494L47.3323 34.2523L41.5097 38.8979L42.2027 31.0148L48.3045 26.7492V26.7494Z" fill="#00B159"/>
<path d="M26.9833 41.8276C26.9829 41.8204 26.9802 41.8138 26.9795 41.8068C26.9766 41.7771 26.9698 41.748 26.9592 41.7201C26.9527 41.7031 26.9447 41.6867 26.9354 41.671C26.9301 41.6616 26.925 41.6521 26.9187 41.6435C26.9073 41.6277 26.8944 41.6129 26.8804 41.5993C26.8737 41.5927 26.8679 41.5853 26.8607 41.5791L26.8553 41.5735L24.1006 39.3391L26.6336 37.6431C26.7348 37.5752 26.7929 37.4608 26.7874 37.3407L26.7617 36.7435L30.1204 39.2912L30.1857 47.0278L27.0959 44.4428L26.9833 41.8276ZM13.4611 33.158L15.0187 43.7367L7.63663 36.8254L5.49904 26.5656L13.4609 33.158H13.4611ZM26.0812 37.1758L15.7748 44.0761L14.1675 33.1601L25.6307 26.6758L26.0812 37.1758ZM24.7557 6.33887L25.3687 20.5817L13.2403 26.8537L10.9911 11.5952L24.7557 6.33887ZM10.2824 11.5799L12.4938 26.5815L4.15479 20.1227L1.20735 5.97212L10.2826 11.5801L10.2824 11.5799ZM10.4111 50.1376L8.83546 42.5713L15.8591 49.4361L16.9841 57.0709L10.4111 50.1376ZM26.6533 50.4128L17.748 57.4631L16.5638 49.4295L26.3128 42.4977L26.6533 50.4128ZM37.8326 41.5552L30.8845 47.0626L30.8195 39.2961L38.296 33.9815L37.8326 41.5552ZM38.8025 37.1446L39.0379 33.2969C39.0379 33.2925 39.0367 33.2886 39.0367 33.2842C39.0367 33.2792 39.0384 33.2744 39.0382 33.2692C39.0381 33.2541 39.0341 33.2393 39.0318 33.2244C39.0299 33.2137 39.0299 33.2029 39.0272 33.1924C39.0204 33.1655 39.0105 33.1396 38.9976 33.115C38.9965 33.1131 38.9961 33.1107 38.995 33.1086C38.9798 33.0819 38.9613 33.0573 38.9397 33.0354C38.9353 33.0309 38.93 33.0275 38.9255 33.0233C38.9114 33.0101 38.8978 32.9967 38.8814 32.9856L34.201 29.9138L34.2691 26.5428L41.6349 31.1043L40.978 38.6494L38.8025 37.1446ZM41.6918 38.5022L42.3354 31.1114L48.1488 26.9767L47.1717 34.1613L41.692 38.5022H41.6918ZM48.9518 26.206C48.9514 26.1994 48.949 26.1934 48.948 26.1868C48.9464 26.1745 48.9441 26.1623 48.9412 26.1502C48.9343 26.1198 48.9235 26.0904 48.9089 26.0629C48.899 26.0449 48.8875 26.0278 48.8745 26.0119C48.8677 26.0034 48.8613 25.9947 48.8537 25.9868C48.8373 25.9704 48.8193 25.9556 48.7999 25.9429C48.7939 25.9387 48.7895 25.9329 48.7829 25.9291C48.7817 25.9282 48.7798 25.928 48.7783 25.927C48.7762 25.9259 48.7745 25.924 48.7724 25.9229L40.8163 21.5416C40.7623 21.5119 40.7013 21.497 40.6396 21.4985C40.5779 21.4999 40.5176 21.5176 40.4651 21.5497L33.7497 25.6295C33.7389 25.6359 33.7303 25.6452 33.7205 25.6527C33.7085 25.6618 33.6962 25.6701 33.6855 25.6806C33.6742 25.6918 33.6654 25.7046 33.6559 25.7172C33.6476 25.7282 33.6381 25.7384 33.6313 25.7502C33.6225 25.7648 33.617 25.7808 33.6104 25.7965C33.6058 25.8083 33.5995 25.8191 33.5961 25.8317C33.5914 25.8487 33.5901 25.8665 33.588 25.8842C33.5866 25.8955 33.583 25.9065 33.5827 25.9182L33.5113 29.461L30.7795 27.6682C30.7241 27.6316 30.6594 27.6115 30.593 27.6103C30.5265 27.609 30.4611 27.6267 30.4044 27.6612L26.4743 30.0489L26.304 26.0781C26.3037 26.0698 26.3006 26.0623 26.2999 26.054C26.298 26.0366 26.2949 26.0194 26.2908 26.0025C26.2873 25.99 26.2822 25.9783 26.2775 25.9663C26.2719 25.9515 26.2653 25.9371 26.2577 25.9232C26.2507 25.911 26.2423 25.9 26.234 25.8887C26.2254 25.8766 26.216 25.8651 26.2059 25.8542C26.1952 25.8436 26.1838 25.8337 26.1717 25.8246C26.1641 25.8185 26.1581 25.811 26.1499 25.8053L22.0598 23.0752L25.8883 21.0954C25.9471 21.0647 25.9959 21.0181 26.0291 20.9609C26.0623 20.9037 26.0784 20.8384 26.0757 20.7724L25.4327 5.82628C25.4319 5.80798 25.4276 5.79044 25.424 5.7727C25.4224 5.76516 25.4221 5.75761 25.4202 5.75044C25.4123 5.72064 25.4003 5.69206 25.3845 5.66554C25.3816 5.66064 25.3776 5.65668 25.3746 5.65215C25.3608 5.63088 25.3447 5.6112 25.3266 5.59347C25.3199 5.58706 25.3127 5.58159 25.3055 5.57574C25.2954 5.56744 25.2865 5.55801 25.2757 5.55084C25.2671 5.54518 25.2575 5.54216 25.2485 5.53725C25.244 5.5348 25.2406 5.53103 25.2358 5.52876L14.9206 0.582062C14.8409 0.543579 14.7494 0.53683 14.6648 0.563196L0.595884 4.91825L0.593037 4.91976C0.587341 4.92146 0.582406 4.92542 0.57671 4.92731C0.550554 4.93661 0.525629 4.94902 0.502483 4.96429L0.500395 4.96523C0.492612 4.9707 0.487106 4.97844 0.480082 4.98447C0.461748 4.99839 0.444891 5.01413 0.429775 5.03145C0.419334 5.04428 0.41231 5.059 0.403767 5.07296C0.395224 5.08711 0.385733 5.10012 0.379088 5.11522C0.371495 5.13333 0.367698 5.15257 0.363521 5.17182C0.360674 5.18351 0.355548 5.19408 0.35384 5.20577C0.35365 5.20766 0.354219 5.20936 0.35384 5.21106C0.351941 5.2286 0.35384 5.24615 0.354789 5.26388C0.355358 5.2803 0.354599 5.29652 0.357447 5.31237C0.358016 5.31501 0.357447 5.31746 0.358016 5.31991L3.49719 20.3881C3.51428 20.4687 3.55851 20.5405 3.62438 20.5913L7.88512 23.8916L4.8048 25.3491C4.79911 25.3518 4.79493 25.3559 4.78961 25.3586C4.78487 25.3614 4.77974 25.362 4.77519 25.3646C4.76835 25.3688 4.76379 25.3748 4.75753 25.3793C4.73999 25.3914 4.7236 25.405 4.70855 25.4201C4.70001 25.4286 4.69147 25.4369 4.68387 25.4461C4.66927 25.4646 4.65655 25.4845 4.64591 25.5056C4.64211 25.5131 4.63698 25.5203 4.63357 25.5282C4.62099 25.5572 4.6125 25.5878 4.60832 25.6191V25.6229C4.60775 25.6278 4.6087 25.6327 4.60832 25.6376C4.60623 25.6659 4.60756 25.6942 4.61249 25.7219C4.61306 25.7257 4.6123 25.7293 4.61306 25.7329L6.97466 37.0731C6.98928 37.1433 7.02496 37.2067 7.07717 37.2556L10.0428 40.0315L8.07762 41.2261C8.05261 41.2417 8.02965 41.2602 8.00928 41.2814C8.00358 41.2869 7.99979 41.2931 7.99485 41.299C7.97777 41.319 7.96334 41.3403 7.95119 41.3635C7.93124 41.4003 7.91812 41.4405 7.91246 41.482C7.90866 41.5154 7.91151 41.5484 7.91721 41.5808C7.91797 41.5844 7.91702 41.588 7.91778 41.5918L9.74744 50.3747C9.76054 50.437 9.79073 50.4949 9.83534 50.5419L17.2356 58.3496C17.2468 58.3613 17.2597 58.3704 17.2721 58.3805C17.2766 58.3841 17.2804 58.3881 17.2852 58.3917C17.3083 58.4083 17.3326 58.4219 17.3588 58.4324C17.36 58.433 17.3607 58.4339 17.3623 58.4343C17.3642 58.4353 17.3668 58.4349 17.3691 58.4356C17.408 58.45 17.4488 58.4587 17.4904 58.4587C17.5333 58.458 17.5757 58.4494 17.6155 58.4334C17.6242 58.43 17.6335 58.4283 17.6421 58.4239C17.6565 58.4171 17.6671 58.4062 17.6799 58.3975C17.689 58.3919 17.6994 58.389 17.708 58.3822L27.2274 50.8452C27.3147 50.7758 27.3633 50.6696 27.3588 50.5592L27.1363 45.3842L30.3167 48.0444C30.3222 48.0491 30.3294 48.0508 30.3353 48.0551C30.3533 48.0683 30.3706 48.0823 30.3911 48.0921C30.3979 48.0951 30.4049 48.0964 30.4118 48.0993C30.4205 48.1027 30.4289 48.1053 30.4376 48.1079C30.4718 48.1187 30.5063 48.126 30.5414 48.126C30.5756 48.126 30.6094 48.1191 30.643 48.1089C30.6506 48.1064 30.6582 48.104 30.6662 48.101C30.6741 48.0979 30.6823 48.0964 30.6901 48.0928C30.7077 48.0845 30.722 48.0725 30.7375 48.0617C30.7444 48.057 30.7523 48.0551 30.7588 48.05L38.3898 42.0023C38.4674 41.94 38.5145 41.8495 38.5205 41.751L38.7527 37.9561L41.0745 39.5621C41.0794 39.5653 41.0849 39.5665 41.0896 39.5695C41.0965 39.5737 41.1016 39.5797 41.1086 39.5835C41.1223 39.5906 41.1369 39.5942 41.151 39.5995C41.1604 39.6031 41.1698 39.6074 41.1798 39.6102C41.2106 39.6187 41.2421 39.6242 41.2736 39.6242C41.3078 39.6242 41.3419 39.6174 41.3755 39.6072C41.3831 39.605 41.3907 39.6025 41.3983 39.5997C41.4059 39.5967 41.4143 39.5952 41.422 39.5918C41.441 39.5827 41.4574 39.5701 41.4741 39.5582C41.4796 39.5544 41.4862 39.5529 41.4915 39.5487L47.7163 34.6183C47.7868 34.5623 47.8329 34.4816 47.8451 34.3928L48.9493 26.2726C48.9505 26.264 48.9484 26.2557 48.949 26.247C48.9497 26.2332 48.9526 26.22 48.9518 26.206Z" fill="black"/>
</svg>
