<svg width="99" height="70" viewBox="0 0 99 70" fill="none" xmlns="http://www.w3.org/2000/svg">
<path d="M82.5946 3.15405C88.5358 9.00932 92.7984 15.8873 94.7778 23.997C98.751 40.2852 94.9382 54.6226 83.5371 66.9318C83.2019 67.2899 82.8381 67.6251 82.5029 67.9831" stroke="#5FFF51" stroke-width="4" stroke-linecap="round" stroke-linejoin="round"/>
<path d="M15.7343 67.9288C8.74464 61.0537 4.22428 52.838 2.66306 43.1442C0.27397 28.2912 4.36465 15.3574 14.5541 4.32293C15.0554 3.78152 15.6197 3.29454 16.0752 2.71875" stroke="#5FFF51" stroke-width="4" stroke-linecap="round" stroke-linejoin="round"/>
<path d="M34.2656 56.0236C22.6983 44.2471 22.7012 26.8503 34.2656 15.0166" stroke="#5FFF51" stroke-width="4" stroke-linecap="round" stroke-linejoin="round"/>
<path d="M64.2981 15.1112C69.9729 20.8863 72.892 27.8187 72.7917 35.9112C72.6972 43.6743 69.8154 50.3431 64.3525 55.8661" stroke="#5FFF51" stroke-width="4" stroke-linecap="round" stroke-linejoin="round"/>
<path d="M41.3325 35.5586C41.3365 37.1143 41.8013 38.6339 42.6683 39.9256C43.5353 41.2173 44.7656 42.2232 46.2039 42.8162C47.6422 43.4092 49.2239 43.5627 50.7493 43.2574C52.2748 42.9521 53.6756 42.2016 54.7748 41.1008C55.8741 39.9999 56.6225 38.5981 56.9256 37.0722C57.2287 35.5463 57.0728 33.9648 56.4778 32.5274C55.8827 31.09 54.875 29.8611 53.5821 28.996C52.2891 28.1309 50.7688 27.6683 49.2131 27.6666C47.122 27.6696 45.1175 28.5024 43.64 29.9821C42.1624 31.4618 41.3325 33.4675 41.3325 35.5586Z" fill="#5FFF51"/>
</svg>
