<svg width="49" height="62" viewBox="0 0 49 62" fill="none" xmlns="http://www.w3.org/2000/svg">
<path d="M44.2283 24.0345C44.2283 18.8191 42.1565 13.8173 38.4687 10.1295C34.7809 6.4417 29.7791 4.3699 24.5638 4.3699C19.3484 4.3699 14.3466 6.4417 10.6588 10.1295C6.971 13.8173 4.8992 18.8191 4.8992 24.0345C4.8992 32.1013 11.3535 42.6153 24.5638 55.2094C37.774 42.6153 44.2283 32.1013 44.2283 24.0345ZM24.5638 61.1786C8.53933 46.6138 0.529297 34.2295 0.529297 24.0345C0.529297 17.6601 3.06149 11.5469 7.56883 7.03953C12.0762 2.5322 18.1894 0 24.5638 0C30.9381 0 37.0514 2.5322 41.5587 7.03953C46.066 11.5469 48.5982 17.6601 48.5982 24.0345C48.5982 34.2295 40.5882 46.6138 24.5638 61.1786Z" fill="#FF6C6C"/>
<path d="M24.5639 30.5894C26.3024 30.5894 27.9696 29.8988 29.1989 28.6695C30.4282 27.4402 31.1188 25.773 31.1188 24.0345C31.1188 22.296 30.4282 20.6288 29.1989 19.3995C27.9696 18.1702 26.3024 17.4796 24.5639 17.4796C22.8255 17.4796 21.1582 18.1702 19.9289 19.3995C18.6997 20.6288 18.0091 22.296 18.0091 24.0345C18.0091 25.773 18.6997 27.4402 19.9289 28.6695C21.1582 29.8988 22.8255 30.5894 24.5639 30.5894ZM24.5639 34.9593C21.6665 34.9593 18.8877 33.8083 16.8389 31.7595C14.7902 29.7107 13.6392 26.9319 13.6392 24.0345C13.6392 21.1371 14.7902 18.3583 16.8389 16.3095C18.8877 14.2607 21.6665 13.1097 24.5639 13.1097C27.4613 13.1097 30.2401 14.2607 32.2889 16.3095C34.3377 18.3583 35.4887 21.1371 35.4887 24.0345C35.4887 26.9319 34.3377 29.7107 32.2889 31.7595C30.2401 33.8083 27.4613 34.9593 24.5639 34.9593Z" fill="#FF6C6C"/>
</svg>
