<svg width="62" height="69" viewBox="0 0 62 69" fill="none" xmlns="http://www.w3.org/2000/svg">
<path d="M32.137 1.53345H5.77103C3.13606 1.53345 1 3.66951 1 6.30447V62.672C1 65.3069 3.13606 67.443 5.77103 67.443H32.137C34.7719 67.443 36.908 65.3069 36.908 62.672V6.30447C36.908 3.66951 34.7719 1.53345 32.137 1.53345Z" stroke="#CA84EB" stroke-width="2" stroke-miterlimit="10"/>
<path d="M11.2604 7.61694H6.25104C5.85526 7.61694 5.53442 7.93778 5.53442 8.33356V13.5216C5.53442 13.9174 5.85526 14.2382 6.25104 14.2382H11.2604C11.6561 14.2382 11.977 13.9174 11.977 13.5216V8.33356C11.977 7.93778 11.6561 7.61694 11.2604 7.61694Z" stroke="#CA84EB" stroke-width="2" stroke-linecap="round" stroke-linejoin="round"/>
<path d="M21.5941 7.61682H16.5848C16.189 7.61682 15.8682 7.93766 15.8682 8.33344V13.5215C15.8682 13.9172 16.189 14.2381 16.5848 14.2381H21.5941C21.9899 14.2381 22.3107 13.9172 22.3107 13.5215V8.33344C22.3107 7.93766 21.9899 7.61682 21.5941 7.61682Z" stroke="#CA84EB" stroke-width="2" stroke-linecap="round" stroke-linejoin="round"/>
<path d="M31.9266 7.61682H26.9173C26.5215 7.61682 26.2007 7.93766 26.2007 8.33344V13.5215C26.2007 13.9172 26.5215 14.2381 26.9173 14.2381H31.9266C32.3224 14.2381 32.6432 13.9172 32.6432 13.5215V8.33344C32.6432 7.93766 32.3224 7.61682 31.9266 7.61682Z" stroke="#CA84EB" stroke-width="2" stroke-linecap="round" stroke-linejoin="round"/>
<path d="M11.2604 19.0248H6.25104C5.85526 19.0248 5.53442 19.3456 5.53442 19.7414V24.9294C5.53442 25.3252 5.85526 25.646 6.25104 25.646H11.2604C11.6561 25.646 11.977 25.3252 11.977 24.9294V19.7414C11.977 19.3456 11.6561 19.0248 11.2604 19.0248Z" stroke="#CA84EB" stroke-width="2" stroke-linecap="round" stroke-linejoin="round"/>
<path d="M21.5941 19.0248H16.5848C16.189 19.0248 15.8682 19.3456 15.8682 19.7414V24.9294C15.8682 25.3252 16.189 25.646 16.5848 25.646H21.5941C21.9899 25.646 22.3107 25.3252 22.3107 24.9294V19.7414C22.3107 19.3456 21.9899 19.0248 21.5941 19.0248Z" stroke="#CA84EB" stroke-width="2" stroke-linecap="round" stroke-linejoin="round"/>
<path d="M31.9266 19.0248H26.9173C26.5215 19.0248 26.2007 19.3456 26.2007 19.7414V24.9294C26.2007 25.3252 26.5215 25.646 26.9173 25.646H31.9266C32.3224 25.646 32.6432 25.3252 32.6432 24.9294V19.7414C32.6432 19.3456 32.3224 19.0248 31.9266 19.0248Z" stroke="#CA84EB" stroke-width="2" stroke-linecap="round" stroke-linejoin="round"/>
<path d="M37.4597 11.0984H40.0756C40.1374 11.0984 40.1986 11.1106 40.2557 11.1343C40.3128 11.158 40.3647 11.1928 40.4083 11.2365C40.4519 11.2803 40.4865 11.3323 40.51 11.3895C40.5334 11.4467 40.5454 11.5079 40.5452 11.5697V16.2742C40.545 16.378 40.5793 16.4789 40.6427 16.561C40.7062 16.6432 40.7951 16.7019 40.8956 16.728C41.8155 16.9715 44.3683 17.7635 46.2869 19.4525C46.3765 19.531 46.4926 19.5725 46.6117 19.5686C46.7308 19.5647 46.8439 19.5157 46.9282 19.4315L50.8301 15.5295C50.8745 15.4849 50.9274 15.4496 50.9857 15.4258C51.0439 15.402 51.1064 15.3902 51.1693 15.391C51.2322 15.3918 51.2943 15.4053 51.352 15.4306C51.4096 15.4559 51.4615 15.4925 51.5047 15.5383L56.4878 20.7736C56.5733 20.8626 56.6201 20.9818 56.6182 21.1052C56.6162 21.2286 56.5655 21.3462 56.4772 21.4324L52.7785 25.0821C52.7328 25.1258 52.6965 25.1782 52.6716 25.2364C52.6468 25.2945 52.634 25.357 52.634 25.4202C52.634 25.4834 52.6468 25.546 52.6716 25.6041C52.6965 25.6622 52.7328 25.7147 52.7785 25.7584C54.2476 27.1717 55.2216 29.0213 55.5556 31.0323C55.5746 31.141 55.6315 31.2395 55.7162 31.3104C55.8008 31.3813 55.9078 31.4199 56.0182 31.4195H60.3775C60.5023 31.42 60.6219 31.4698 60.7102 31.5581C60.7985 31.6463 60.8483 31.766 60.8488 31.8908V39.092C60.8483 39.2167 60.7985 39.3362 60.7101 39.4242C60.6218 39.5122 60.5022 39.5616 60.3775 39.5616H55.9411C55.8341 39.5615 55.7303 39.5979 55.6468 39.6648C55.5633 39.7317 55.5052 39.8251 55.482 39.9296C55.0266 41.9237 54.1627 43.8017 52.945 45.4452C52.8774 45.5354 52.8447 45.6468 52.8527 45.7592C52.8608 45.8715 52.9091 45.9771 52.9888 46.0567L56.5683 49.6363C56.6565 49.7247 56.706 49.8444 56.706 49.9692C56.706 50.094 56.6565 50.2138 56.5683 50.3021L51.5187 55.3517C51.4304 55.4399 51.3107 55.4894 51.1858 55.4894C51.061 55.4894 50.9413 55.4399 50.8529 55.3517L47.2786 51.7757C47.1981 51.6955 47.0914 51.6471 46.9781 51.6394C46.8648 51.6317 46.7525 51.6651 46.6619 51.7336C45.8944 52.3188 43.8199 53.7503 41.3004 54.2829C41.1956 54.3057 41.1018 54.3637 41.0345 54.4472C40.9673 54.5307 40.9306 54.6348 40.9307 54.742V59.4079C40.9307 59.5326 40.8812 59.6522 40.7932 59.7406C40.7052 59.8289 40.5858 59.8788 40.4611 59.8792H37.3861C37.3242 59.8794 37.2628 59.8674 37.2055 59.8438C37.1482 59.8202 37.0961 59.7855 37.0523 59.7417C37.0085 59.6979 36.9738 59.6458 36.9502 59.5885C36.9266 59.5312 36.9146 59.4699 36.9148 59.4079C36.9148 54.707 36.9814 16.2636 36.9884 11.575C36.9875 11.5126 36.999 11.4506 37.0223 11.3927C37.0455 11.3348 37.0801 11.2821 37.124 11.2378C37.1679 11.1934 37.2202 11.1582 37.2778 11.1343C37.3355 11.1104 37.3973 11.0982 37.4597 11.0984V11.0984Z" stroke="#CA84EB" stroke-width="2" stroke-linecap="round" stroke-linejoin="round"/>
<path d="M36.9553 23.7327C40.0734 23.7341 43.0632 24.974 45.2671 27.1799C47.4709 29.3857 48.7082 32.3766 48.7068 35.4947C48.7054 38.6127 47.4654 41.6026 45.2596 43.8064C43.0538 46.0102 40.0629 47.2475 36.9448 47.2461" stroke="#CA84EB" stroke-width="2" stroke-linecap="round" stroke-linejoin="round"/>
<path d="M1.0437 58.1234H36.8571" stroke="#CA84EB" stroke-width="2" stroke-linecap="round" stroke-linejoin="round"/>
<path d="M20.3173 62.2919H17.5823C17.2978 62.2919 17.0671 62.5225 17.0671 62.807V62.8736C17.0671 63.1581 17.2978 63.3887 17.5823 63.3887H20.3173C20.6018 63.3887 20.8324 63.1581 20.8324 62.8736V62.807C20.8324 62.5225 20.6018 62.2919 20.3173 62.2919Z" fill="#CA84EB"/>
</svg>
