<svg width="60" height="59" viewBox="0 0 60 59" fill="none" xmlns="http://www.w3.org/2000/svg">
<path d="M46.2353 58.1885C45.6655 58.1869 45.0974 58.1234 44.5409 57.9991C33.9449 55.7712 24.1832 50.5477 16.3792 42.9296C8.74178 35.2948 3.44482 25.5741 1.1292 14.9435C0.856159 13.6186 0.923174 12.2446 1.3238 10.9537C1.72442 9.66273 2.44517 8.4983 3.4167 7.57241L10.1945 0.941855C10.5407 0.609101 10.952 0.354284 11.4016 0.194036C11.8513 0.0337877 12.3291 -0.0282897 12.8039 0.0118552C13.2963 0.0640608 13.7714 0.225261 14.1959 0.484121C14.6203 0.74298 14.9839 1.09321 15.2609 1.51019L23.7331 14.2374C24.0508 14.7312 24.2042 15.3157 24.1706 15.9048C24.1371 16.4938 23.9184 17.0564 23.5467 17.5096L19.2936 22.6763C20.9875 26.4866 23.3863 29.9304 26.3595 32.8202C29.3134 35.8148 32.8049 38.2059 36.6448 39.8641L41.9145 35.6102C42.3571 35.2547 42.8957 35.0445 43.4586 35.0076C44.0216 34.9706 44.5823 35.1087 45.0662 35.4035L57.8592 43.808C58.2982 44.0744 58.6722 44.4383 58.9532 44.8725C59.2342 45.3067 59.4149 45.7999 59.4817 46.3152C59.5485 46.8304 59.4998 47.3543 59.3391 47.8477C59.1784 48.3411 58.91 48.7911 58.5539 49.1641L51.9456 55.8119C51.1949 56.5711 50.304 57.1719 49.324 57.5798C48.344 57.9877 47.2943 58.1945 46.2353 58.1885ZM12.5328 3.42186L5.75503 10.0524C5.20849 10.57 4.80392 11.2233 4.5811 11.948C4.35828 12.6727 4.32488 13.4439 4.4842 14.1857C6.63737 24.1611 11.5868 33.2892 18.7345 40.4669C26.0785 47.634 35.2648 52.5472 45.2356 54.6407C45.9903 54.8011 46.7724 54.7686 47.5117 54.5462C48.251 54.3238 48.9245 53.9184 49.4717 53.3663L56.08 46.7185L43.7275 38.6069L38.0681 43.188C37.8514 43.3623 37.5961 43.48 37.3244 43.5311C37.0527 43.5821 36.7728 43.5648 36.5092 43.4807C31.81 41.721 27.5514 38.9275 24.0381 35.3002C20.4041 31.8509 17.5833 27.6122 15.7861 22.9002C15.7101 22.6149 15.7076 22.3146 15.7788 22.028C15.85 21.7415 15.9926 21.4784 16.1928 21.2641L20.7678 15.7013L12.5328 3.42186Z" fill="#5FFF51"/>
</svg>
