<svg width="85" height="87" viewBox="0 0 85 87" fill="none" xmlns="http://www.w3.org/2000/svg">
<path d="M10.5637 58.2587V7.67213H10.4593C5.24138 7.67213 1.00244 11.8191 1.00244 16.9302V66.1079" stroke="#FF6CC4" stroke-width="2" stroke-linecap="round" stroke-linejoin="round"/>
<path d="M10.5637 58.2585H9.38098C7.15821 58.2585 5.02647 59.1415 3.45473 60.7133C1.88299 62.285 1 64.4168 1 66.6395C1 68.8623 1.88299 70.994 3.45473 72.5658C5.02647 74.1375 7.15821 75.0205 9.38098 75.0205H53.4725" stroke="#FF6CC4" stroke-width="2" stroke-linecap="round" stroke-linejoin="round"/>
<path d="M78.6155 17.6306H63.4487" stroke="#FF6CC4" stroke-width="2" stroke-linecap="round" stroke-linejoin="round"/>
<path d="M49.564 17.6306H10.7153H10.5637L10.5712 58.2559" stroke="#FF6CC4" stroke-width="2" stroke-linecap="round" stroke-linejoin="round"/>
<path d="M78.6155 49.5196V17.6306" stroke="#FF6CC4" stroke-width="2" stroke-linecap="round" stroke-linejoin="round"/>
<path d="M23.6509 47.4826H60.1938" stroke="#FF6CC4" stroke-width="2" stroke-linecap="round" stroke-linejoin="round"/>
<path d="M64.5843 2.60072L57.063 10.1319L31.2939 35.8961L27.8799 47.2761L38.2486 42.6968L64.6886 16.3984L71.5291 9.55796C72.0875 8.99688 72.4009 8.23751 72.4009 7.44594C72.4009 6.65437 72.0875 5.895 71.5291 5.33392L68.8182 2.60072C68.5411 2.32126 68.2113 2.09944 67.8479 1.94806C67.4846 1.79669 67.0949 1.71875 66.7013 1.71875C66.3076 1.71875 65.9179 1.79669 65.5546 1.94806C65.1912 2.09944 64.8615 2.32126 64.5843 2.60072V2.60072ZM31.3212 35.9184L38.1642 42.6272L31.3212 35.9184ZM59.3986 7.84101L66.2416 14.5498L59.3986 7.84101ZM62.0697 5.17241L68.9102 11.8812L62.0697 5.17241Z" stroke="#FF6CC4" stroke-width="2" stroke-linecap="round" stroke-linejoin="round"/>
<path d="M38.164 42.62L31.321 35.9187" stroke="#FF6CC4" stroke-width="2" stroke-linecap="round" stroke-linejoin="round"/>
<path d="M68.9125 11.8712L62.072 5.16994" stroke="#FF6CC4" stroke-width="2" stroke-linecap="round" stroke-linejoin="round"/>
<path d="M66.2441 14.5399L59.4011 7.83862" stroke="#FF6CC4" stroke-width="2" stroke-linecap="round" stroke-linejoin="round"/>
<path d="M83.2222 44.8389L63.4289 64.9428L43.5212 85.1039H83.2222V44.8389Z" stroke="#FF6CC4" stroke-width="2" stroke-linecap="round" stroke-linejoin="round"/>
<path d="M75.3281 64.0332L68.9946 70.4662L62.6262 76.9165H75.3281V64.0332Z" stroke="#FF6CC4" stroke-width="2" stroke-linecap="round" stroke-linejoin="round"/>
<path d="M80.5784 63.839H83.2221" stroke="#FF6CC4" stroke-width="2" stroke-linecap="round" stroke-linejoin="round"/>
<path d="M80.5784 66.6068H83.2221" stroke="#FF6CC4" stroke-width="2" stroke-linecap="round" stroke-linejoin="round"/>
<path d="M80.5784 69.3748H83.2221" stroke="#FF6CC4" stroke-width="2" stroke-linecap="round" stroke-linejoin="round"/>
<path d="M80.5784 72.1454H83.2221" stroke="#FF6CC4" stroke-width="2" stroke-linecap="round" stroke-linejoin="round"/>
<path d="M80.5781 74.9128H83.2219" stroke="#FF6CC4" stroke-width="2" stroke-linecap="round" stroke-linejoin="round"/>
</svg>
