<svg width="72" height="69" viewBox="0 0 72 69" fill="none" xmlns="http://www.w3.org/2000/svg">
<path d="M66.7501 1.98474H5.24305C2.89968 1.98474 1 3.88442 1 6.22779V63.1999C1 65.5433 2.89968 67.443 5.24305 67.443H66.7501C69.0935 67.443 70.9932 65.5433 70.9932 63.1999V6.22779C70.9932 3.88442 69.0935 1.98474 66.7501 1.98474Z" stroke="#57D295" stroke-width="2" stroke-linecap="round" stroke-linejoin="round"/>
<path d="M47.4941 24.9634L36.4205 18.6282C36.2719 18.5404 36.1025 18.4941 35.93 18.4941C35.7574 18.4941 35.588 18.5404 35.4394 18.6282L24.6478 24.9413C24.4993 25.0271 24.3309 25.0724 24.1594 25.0728C23.9879 25.0731 23.8193 25.0285 23.6704 24.9434C23.5215 24.8583 23.3975 24.7356 23.3108 24.5877C23.2241 24.4397 23.1777 24.2716 23.1763 24.1001V2.13184H48.9289V24.1197C48.9245 24.2861 48.8778 24.4487 48.7932 24.5921C48.7087 24.7355 48.589 24.855 48.4455 24.9394C48.302 25.0238 48.1393 25.0703 47.9729 25.0745C47.8065 25.0787 47.6417 25.0404 47.4941 24.9634Z" stroke="#57D295" stroke-width="2" stroke-linecap="round" stroke-linejoin="round"/>
<path d="M61.4061 56.3571H43.0481C42.0132 56.3571 41.1743 57.196 41.1743 58.2309V58.2333C41.1743 59.2682 42.0132 60.1071 43.0481 60.1071H61.4061C62.4409 60.1071 63.2799 59.2682 63.2799 58.2333V58.2309C63.2799 57.196 62.4409 56.3571 61.4061 56.3571Z" fill="#57D295"/>
</svg>
