<svg width="74" height="56" viewBox="0 0 74 56" fill="none" xmlns="http://www.w3.org/2000/svg">
<path d="M17.3746 22.6097C16.5645 22.6097 15.7871 22.7332 15.0133 22.8459C15.264 22.0031 15.5219 21.1458 15.936 20.3757C16.3501 19.2568 16.9968 18.2869 17.6397 17.3097C18.1774 16.2526 19.1255 15.537 19.823 14.6325C20.5531 13.7534 21.5485 13.1685 22.3367 12.4383C23.1105 11.6755 24.124 11.2941 24.9305 10.7564C25.7732 10.2733 26.507 9.73928 27.2917 9.48499L29.2497 8.67855L30.9715 7.96292L29.2097 0.922852L27.041 1.44595C26.3472 1.62032 25.5008 1.82375 24.5381 2.06713C23.5537 2.24877 22.5038 2.74644 21.3341 3.20052C20.179 3.71635 18.8421 4.06509 17.5998 4.89333C16.3501 5.68525 14.908 6.34639 13.6366 7.40712C12.4051 8.50055 10.9193 9.44867 9.82228 10.84C8.62351 12.1405 7.43927 13.5063 6.52021 15.0611C5.45585 16.5432 4.73295 18.1706 3.97009 19.7799C3.27989 21.3892 2.7241 23.0348 2.27002 24.6331C1.40908 27.8371 1.02402 30.8813 0.87508 33.4859C0.751571 36.0941 0.824223 38.2628 0.976795 39.8321C1.03128 40.5732 1.133 41.2924 1.20565 41.7901L1.29647 42.4004L1.39092 42.3786C2.03702 45.3967 3.52438 48.1702 5.68094 50.3783C7.83749 52.5864 10.5751 54.1389 13.5771 54.8561C16.5791 55.5733 19.7229 55.4259 22.6446 54.4311C25.5664 53.4362 28.1468 51.6345 30.0874 49.2344C32.028 46.8343 33.2494 43.9338 33.6104 40.8685C33.9713 37.8032 33.4571 34.6983 32.1272 31.913C30.7973 29.1277 28.706 26.7759 26.0953 25.1295C23.4845 23.4831 20.461 22.6095 17.3746 22.6097ZM57.3336 22.6097C56.5236 22.6097 55.7462 22.7332 54.9724 22.8459C55.2231 22.0031 55.481 21.1458 55.8951 20.3757C56.3092 19.2568 56.9558 18.2869 57.5988 17.3097C58.1365 16.2526 59.0846 15.537 59.782 14.6325C60.5122 13.7534 61.5075 13.1685 62.2958 12.4383C63.0696 11.6755 64.0831 11.2941 64.8895 10.7564C65.7323 10.2733 66.4661 9.73928 67.2508 9.48499L69.2087 8.67855L70.9306 7.96292L69.1688 0.922852L67.0001 1.44595C66.3063 1.62032 65.4599 1.82375 64.4972 2.06713C63.5128 2.24877 62.4629 2.74644 61.2932 3.20052C60.1417 3.71999 58.8012 4.06509 57.5589 4.89696C56.3092 5.68888 54.8671 6.35002 53.5956 7.41075C52.3642 8.50418 50.8784 9.4523 49.7814 10.84C48.5826 12.1405 47.3984 13.5063 46.4793 15.0611C45.4149 16.5432 44.692 18.1706 43.9292 19.7799C43.239 21.3892 42.6832 23.0348 42.2291 24.6331C41.3682 27.8371 40.9831 30.8813 40.8342 33.4859C40.7107 36.0941 40.7833 38.2628 40.9359 39.8321C40.9904 40.5732 41.0921 41.2924 41.1647 41.7901L41.2556 42.4004L41.35 42.3786C41.9961 45.3967 43.4835 48.1702 45.64 50.3783C47.7966 52.5864 50.5342 54.1389 53.5362 54.8561C56.5382 55.5733 59.6819 55.4259 62.6037 54.4311C65.5255 53.4362 68.1059 51.6345 70.0465 49.2344C71.987 46.8343 73.2085 43.9338 73.5694 40.8685C73.9304 37.8032 73.4162 34.6983 72.0863 31.913C70.7564 29.1277 68.6651 26.7759 66.0544 25.1295C63.4436 23.4831 60.4201 22.6095 57.3336 22.6097Z" fill="#6A6A6A" fill-opacity="0.3"/>
</svg>
