<svg width="83" height="69" viewBox="0 0 83 69" fill="none" xmlns="http://www.w3.org/2000/svg">
<path d="M78.0848 1.98474H4.73916C2.67408 1.98474 1 3.65882 1 5.7239V26.6075C1 28.6726 2.67408 30.3467 4.73916 30.3467H78.0848C80.1499 30.3467 81.824 28.6726 81.824 26.6075V5.7239C81.824 3.65882 80.1499 1.98474 78.0848 1.98474Z" stroke="#6CC9DA" stroke-width="2" stroke-miterlimit="10"/>
<path d="M78.0848 39.0811H4.73916C2.67408 39.0811 1 40.7551 1 42.8202V63.7039C1 65.7689 2.67408 67.443 4.73916 67.443H78.0848C80.1499 67.443 81.824 65.7689 81.824 63.7039V42.8202C81.824 40.7551 80.1499 39.0811 78.0848 39.0811Z" stroke="#6CC9DA" stroke-width="2" stroke-miterlimit="10"/>
<path d="M9.71533 39.0811V30.3467" stroke="#6CC9DA" stroke-width="2" stroke-miterlimit="10"/>
<path d="M73.1138 39.0811V30.3467" stroke="#6CC9DA" stroke-width="2" stroke-miterlimit="10"/>
<path d="M16.9549 17.524C17.9011 17.524 18.6681 16.757 18.6681 15.8109C18.6681 14.8647 17.9011 14.0977 16.9549 14.0977C16.0087 14.0977 15.2417 14.8647 15.2417 15.8109C15.2417 16.757 16.0087 17.524 16.9549 17.524Z" fill="#6CC9DA"/>
<path d="M28.306 17.524C29.2521 17.524 30.0192 16.757 30.0192 15.8109C30.0192 14.8647 29.2521 14.0977 28.306 14.0977C27.3598 14.0977 26.5928 14.8647 26.5928 15.8109C26.5928 16.757 27.3598 17.524 28.306 17.524Z" fill="#6CC9DA"/>
<path d="M39.659 17.524C40.6052 17.524 41.3722 16.757 41.3722 15.8109C41.3722 14.8647 40.6052 14.0977 39.659 14.0977C38.7128 14.0977 37.9458 14.8647 37.9458 15.8109C37.9458 16.757 38.7128 17.524 39.659 17.524Z" fill="#6CC9DA"/>
<path d="M67.1313 13.9138H54.3447C53.3143 13.9138 52.479 14.7491 52.479 15.7795C52.479 16.8099 53.3143 17.6452 54.3447 17.6452H67.1313C68.1616 17.6452 68.9969 16.8099 68.9969 15.7795C68.9969 14.7491 68.1616 13.9138 67.1313 13.9138Z" fill="#6CC9DA"/>
<path d="M16.9549 54.6858C17.9011 54.6858 18.6681 53.9188 18.6681 52.9726C18.6681 52.0264 17.9011 51.2594 16.9549 51.2594C16.0087 51.2594 15.2417 52.0264 15.2417 52.9726C15.2417 53.9188 16.0087 54.6858 16.9549 54.6858Z" fill="#6CC9DA"/>
<path d="M28.306 54.6858C29.2521 54.6858 30.0192 53.9188 30.0192 52.9726C30.0192 52.0264 29.2521 51.2594 28.306 51.2594C27.3598 51.2594 26.5928 52.0264 26.5928 52.9726C26.5928 53.9188 27.3598 54.6858 28.306 54.6858Z" fill="#6CC9DA"/>
<path d="M39.659 54.6858C40.6052 54.6858 41.3722 53.9188 41.3722 52.9726C41.3722 52.0264 40.6052 51.2594 39.659 51.2594C38.7128 51.2594 37.9458 52.0264 37.9458 52.9726C37.9458 53.9188 38.7128 54.6858 39.659 54.6858Z" fill="#6CC9DA"/>
<path d="M67.1313 51.0756H54.3447C53.3143 51.0756 52.479 51.9108 52.479 52.9412C52.479 53.9716 53.3143 54.8069 54.3447 54.8069H67.1313C68.1616 54.8069 68.9969 53.9716 68.9969 52.9412C68.9969 51.9108 68.1616 51.0756 67.1313 51.0756Z" fill="#6CC9DA"/>
</svg>
