<svg width="1348" height="44" viewBox="0 0 1348 44" fill="none" xmlns="http://www.w3.org/2000/svg">
<path d="M124.807 26.4494L128.327 28.796C127.184 30.4788 124.452 33.3659 119.727 33.3659C113.861 33.3659 109.492 28.827 109.492 23.053C109.492 16.9086 113.907 12.7402 119.233 12.7402C124.59 12.7402 127.215 17.0011 128.064 19.3014L128.527 20.4748L114.725 26.1869C115.775 28.2558 117.412 29.3056 119.727 29.3056C122.043 29.3056 123.649 28.1631 124.807 26.4494ZM113.985 22.7291L123.201 18.9002C122.692 17.6189 121.179 16.7082 119.372 16.7082C117.072 16.7082 113.876 18.746 113.985 22.7291Z" fill="#FF302F"/>
<path d="M102.838 2.22687H107.284V32.4243H102.838V2.22662V2.22687Z" fill="#20B15A"/>
<path d="M95.8283 13.543H100.12V31.8838C100.12 39.4947 95.6276 42.6287 90.3167 42.6287C85.3149 42.6287 82.3045 39.2633 81.1774 36.5308L85.1141 34.8941C85.8241 36.5769 87.5378 38.5686 90.3167 38.5686C93.7285 38.5686 95.8283 36.4534 95.8283 32.5014V31.0194H95.6739C94.6549 32.2543 92.7097 33.3658 90.2396 33.3658C85.0831 33.3658 80.3589 28.8732 80.3589 23.084C80.3589 17.2636 85.0831 12.725 90.2396 12.725C92.6943 12.725 94.6549 13.8211 95.6739 15.0253H95.8283V13.5433V13.543ZM96.1368 23.084C96.1368 19.4405 93.7131 16.7851 90.6255 16.7851C87.5069 16.7851 84.8824 19.4405 84.8824 23.084C84.8824 26.681 87.5069 29.2901 90.6255 29.2901C93.7134 29.3057 96.1371 26.681 96.1371 23.084H96.1368Z" fill="#3686F7"/>
<path d="M55.9514 23.0068C55.9514 28.9506 51.3201 33.3195 45.6387 33.3195C39.9576 33.3195 35.326 28.9353 35.326 23.0068C35.326 17.0322 39.9576 12.6787 45.6387 12.6787C51.3201 12.6787 55.9514 17.0322 55.9514 23.0068ZM51.4435 23.0068C51.4435 19.3018 48.7571 16.7542 45.6387 16.7542C42.5203 16.7542 39.8339 19.3018 39.8339 23.0068C39.8339 26.681 42.5203 29.2594 45.6387 29.2594C48.7573 29.2594 51.4435 26.681 51.4435 23.0068Z" fill="#FF302F"/>
<path d="M78.4755 23.053C78.4755 28.9968 73.8439 33.3657 68.1628 33.3657C62.4814 33.3657 57.85 28.9965 57.85 23.053C57.85 17.0784 62.4814 12.7402 68.1628 12.7402C73.8439 12.7402 78.4755 17.063 78.4755 23.053ZM73.9519 23.053C73.9519 19.348 71.2658 16.8003 68.1471 16.8003C65.0288 16.8003 62.3424 19.348 62.3424 23.053C62.3424 26.7272 65.0288 29.3056 68.1471 29.3056C71.2811 29.3056 73.9519 26.7118 73.9519 23.053Z" fill="#FFBA40"/>
<path d="M18.3749 28.8422C11.9061 28.8422 6.8426 23.624 6.8426 17.1553C6.8426 10.6868 11.9061 5.46861 18.3749 5.46861C21.864 5.46861 24.4111 6.84255 26.2946 8.6026L29.3979 5.49959C26.7734 2.98317 23.2689 1.06848 18.3749 1.06848C9.5134 1.06873 2.05661 8.29405 2.05661 17.1553C2.05661 26.017 9.5134 33.2421 18.3749 33.2421C23.1609 33.2421 26.7734 31.6674 29.5986 28.7341C32.5009 25.8316 33.3963 21.7559 33.3963 18.4521C33.3963 17.4177 33.2728 16.3526 33.1338 15.5652H18.3749V19.8571H28.8883C28.5795 22.5435 27.7305 24.3806 26.48 25.6309C24.967 27.1595 22.5743 28.8422 18.3749 28.8422Z" fill="#3686F7"/>
<path d="M275.378 16.2389C275.378 17.0828 275.47 17.7669 275.629 18.2686C275.832 18.833 276.075 19.3817 276.359 19.9103C276.473 20.0927 276.518 20.2751 276.518 20.4349C276.518 20.6627 276.381 20.8909 276.085 21.119L274.649 22.0766C274.443 22.2136 274.238 22.2819 274.055 22.2819C273.828 22.2819 273.599 22.1678 273.371 21.9626C273.064 21.6324 272.789 21.2735 272.551 20.8909C272.322 20.5035 272.094 20.0698 271.844 19.5456C270.065 21.6433 267.83 22.6924 265.139 22.6924C263.224 22.6924 261.696 22.145 260.579 21.0506C259.462 19.9558 258.891 18.4964 258.891 16.6723C258.891 14.7341 259.576 13.1607 260.967 11.9749C262.357 10.7891 264.205 10.1962 266.553 10.1962C267.329 10.1962 268.127 10.2646 268.97 10.3786C269.814 10.4927 270.681 10.6751 271.593 10.8803V9.21572C271.593 7.48251 271.228 6.27414 270.521 5.56719C269.791 4.86024 268.56 4.51806 266.804 4.51806C266.006 4.51806 265.185 4.60953 264.341 4.81478C263.498 5.01976 262.677 5.27074 261.879 5.59005C261.514 5.74957 261.24 5.84077 261.08 5.8865C260.921 5.93223 260.807 5.95482 260.716 5.95482C260.396 5.95482 260.237 5.72671 260.237 5.24788V4.13043C260.237 3.76565 260.283 3.49207 260.396 3.33255C260.51 3.17276 260.716 3.01324 261.035 2.85372C261.833 2.44322 262.791 2.10104 263.908 1.82746C265.026 1.53102 266.211 1.39436 267.466 1.39436C270.179 1.39436 272.163 2.00985 273.44 3.24136C274.694 4.4726 275.333 6.34246 275.333 8.85095V16.2389H275.379H275.378ZM266.12 19.7051C266.873 19.7051 267.648 19.5684 268.469 19.2946C269.29 19.021 270.019 18.5193 270.635 17.8352C271 17.4021 271.274 16.9233 271.41 16.3759C271.547 15.8287 271.638 15.1672 271.638 14.3919V13.4343C270.947 13.266 270.246 13.1365 269.54 13.0466C268.829 12.9563 268.114 12.9106 267.397 12.9097C265.869 12.9097 264.752 13.2062 263.999 13.8219C263.247 14.4377 262.882 15.3041 262.882 16.4442C262.882 17.5159 263.155 18.314 263.726 18.8615C264.273 19.4315 265.071 19.7051 266.12 19.7051ZM284.431 22.1678C284.02 22.1678 283.747 22.0995 283.564 21.9397C283.382 21.8031 283.222 21.4837 283.086 21.0506L277.727 3.42375C277.59 2.96751 277.521 2.67107 277.521 2.51155C277.521 2.14677 277.704 1.94125 278.069 1.94125H280.304C280.737 1.94125 281.033 2.00985 281.193 2.16937C281.375 2.30629 281.512 2.6256 281.649 3.0587L285.48 18.1545L289.037 3.0587C289.151 2.60274 289.288 2.30629 289.47 2.16937C289.653 2.03272 289.972 1.94152 290.383 1.94152H292.207C292.64 1.94152 292.937 2.00985 293.119 2.16937C293.301 2.30629 293.461 2.6256 293.552 3.0587L297.155 18.3369L301.1 3.0587C301.237 2.60274 301.396 2.30629 301.556 2.16937C301.738 2.03272 302.035 1.94152 302.445 1.94152H304.566C304.931 1.94152 305.136 2.12391 305.136 2.51155C305.136 2.6256 305.113 2.73966 305.09 2.87632C305.067 3.01324 305.022 3.19563 304.931 3.44661L299.435 21.0732C299.298 21.5295 299.139 21.8259 298.956 21.9626C298.774 22.0995 298.477 22.1907 298.09 22.1907H296.129C295.696 22.1907 295.399 22.1224 295.216 21.9626C295.034 21.8031 294.875 21.5066 294.783 21.0506L291.249 6.34246L287.737 21.0275C287.623 21.4837 287.486 21.7802 287.304 21.9397C287.122 22.0995 286.802 22.1678 286.392 22.1678H284.431H284.431ZM313.733 22.7836C312.547 22.7836 311.361 22.6467 310.221 22.3731C309.081 22.0995 308.192 21.8028 307.599 21.4611C307.234 21.2556 306.983 21.0278 306.892 20.8225C306.803 20.6212 306.757 20.4039 306.755 20.1839V19.021C306.755 18.5422 306.938 18.314 307.28 18.314C307.419 18.3146 307.558 18.3377 307.69 18.3826C307.827 18.4284 308.032 18.5193 308.26 18.6105C309.066 18.9647 309.906 19.2323 310.769 19.4086C311.662 19.5899 312.571 19.6815 313.482 19.6822C314.919 19.6822 316.036 19.4315 316.811 18.9298C317.587 18.4281 317.997 17.6986 317.997 16.7635C317.997 16.1251 317.792 15.6006 317.381 15.1672C316.971 14.7341 316.196 14.3465 315.079 13.9814L311.772 12.9554C310.107 12.4309 308.876 11.6556 308.123 10.6293C307.371 9.62595 306.983 8.50877 306.983 7.32299C306.983 6.36533 307.189 5.52146 307.599 4.79164C308.009 4.0621 308.557 3.42375 309.241 2.92205C309.925 2.39749 310.7 2.00985 311.612 1.73627C312.524 1.46269 313.482 1.34863 314.485 1.34863C314.987 1.34863 315.512 1.3715 316.013 1.43983C316.538 1.50815 317.017 1.59935 317.496 1.69054C317.951 1.8046 318.385 1.91866 318.795 2.05558C319.206 2.19224 319.525 2.32916 319.753 2.46582C320.072 2.64847 320.3 2.83086 320.437 3.03611C320.574 3.21849 320.642 3.46921 320.642 3.78852V4.86024C320.642 5.33907 320.46 5.59005 320.118 5.59005C319.935 5.59005 319.639 5.49859 319.252 5.3162C317.951 4.72331 316.492 4.42687 314.873 4.42687C313.573 4.42687 312.547 4.63212 311.84 5.06549C311.134 5.49859 310.769 6.16008 310.769 7.09487C310.769 7.73349 310.997 8.28065 311.453 8.71402C311.909 9.14712 312.752 9.58049 313.961 9.96813L317.199 10.9944C318.841 11.5189 320.027 12.2485 320.734 13.1833C321.441 14.1184 321.783 15.1901 321.783 16.3759C321.783 17.3564 321.577 18.2457 321.19 19.021C320.779 19.7963 320.232 20.4803 319.525 21.0278C318.818 21.5978 317.974 22.0083 316.994 22.3047C315.968 22.6241 314.896 22.7836 313.733 22.7836Z" fill="#252F3E"/>
<path d="M318.043 33.8658C310.541 39.4071 299.641 42.3486 290.269 42.3486C277.134 42.3486 265.299 37.4915 256.36 29.4191C255.654 28.7808 256.292 27.9143 257.135 28.4157C266.804 34.0256 278.73 37.4231 291.067 37.4231C299.39 37.4231 308.534 35.6902 316.948 32.1329C318.203 31.5626 319.274 32.9539 318.043 33.8658ZM321.167 30.3085C320.209 29.0772 314.828 29.7156 312.388 30.012C311.658 30.1035 311.544 29.4649 312.205 28.986C316.492 25.9759 323.539 26.8426 324.359 27.8457C325.18 28.872 324.131 35.9181 320.118 39.293C319.502 39.8176 318.909 39.544 319.183 38.8599C320.095 36.6021 322.125 31.5171 321.167 30.3085Z" fill="#FF9900"/>
<path d="M825.057 12.1069H833.209L837.942 24.2321L842.744 12.1069H850.69L838.737 40.8486H830.757L834.039 33.2485L825.057 12.1069ZM858.946 11.6232C852.831 11.6232 848.962 17.116 848.962 22.574C848.962 28.7231 853.211 33.5942 858.842 33.5942C863.057 33.5942 864.646 31.0377 864.646 31.0377V33.0415H871.762V12.1069H864.646V14.0068C864.611 14.0068 862.849 11.6232 858.946 11.6232ZM860.466 18.3594C863.298 18.3594 864.749 20.605 864.749 22.6085C864.749 24.7848 863.195 26.9269 860.466 26.9269C858.22 26.9269 856.182 25.096 856.182 22.7123C856.182 20.2939 857.806 18.3597 860.466 18.3597V18.3594ZM874.18 33.0412V2.84863H881.608V14.0758C881.608 14.0758 883.369 11.6232 887.066 11.6232C891.591 11.6232 894.251 15.0087 894.251 19.8105V33.0415H886.858V21.6069C886.858 19.983 886.099 18.394 884.337 18.394C882.54 18.394 881.608 19.983 881.608 21.6069V33.0415H874.18V33.0412ZM906.929 11.6234C899.916 11.6234 895.737 16.9434 895.737 22.6781C895.737 29.1725 900.78 33.6289 906.964 33.6289C912.94 33.6289 918.157 29.3799 918.157 22.7816C918.157 15.5617 912.664 11.6234 906.929 11.6234ZM906.998 18.3945C909.486 18.3945 911.178 20.467 911.178 22.6433C911.178 24.5088 909.589 26.8234 906.998 26.8234C904.615 26.8234 902.853 24.9234 902.853 22.6088C902.853 20.4325 904.304 18.3942 906.998 18.3942V18.3945ZM930.524 11.6234C923.511 11.6234 919.331 16.9434 919.331 22.6781C919.331 29.1725 924.375 33.6289 930.558 33.6289C936.535 33.6289 941.751 29.3799 941.751 22.7816C941.751 15.5617 936.293 11.6234 930.524 11.6234ZM930.593 18.3945C933.08 18.3945 934.773 20.467 934.773 22.6433C934.773 24.5088 933.184 26.8234 930.593 26.8234C928.209 26.8234 926.447 24.9234 926.447 22.6088C926.447 20.4325 927.933 18.3942 930.593 18.3942V18.3945ZM947.624 23.6107C950.353 23.6107 952.564 25.8215 952.564 28.5508C952.564 31.2795 950.353 33.4906 947.624 33.4906C944.895 33.4906 942.684 31.2798 942.684 28.5508C942.684 25.8215 944.895 23.6107 947.624 23.6107H947.624ZM954.188 21.8143H945.309L953.186 2.84863H962.029L954.188 21.814V21.8143Z" fill="#5F01D1"/>
<path d="M1130.53 10.1727C1130.25 9.14356 1129.71 8.20536 1128.96 7.45151C1128.2 6.69766 1127.27 6.15446 1126.24 5.87603C1122.47 4.84863 1107.31 4.84863 1107.31 4.84863C1107.31 4.84863 1092.14 4.87981 1088.38 5.90721C1087.35 6.18569 1086.41 6.7289 1085.65 7.48275C1084.9 8.23659 1084.36 9.17478 1084.08 10.2039C1082.94 16.8983 1082.5 27.0983 1084.11 33.5246C1084.39 34.5537 1084.93 35.4918 1085.69 36.2457C1086.44 36.9995 1087.38 37.5428 1088.41 37.8212C1092.17 38.8486 1107.34 38.8486 1107.34 38.8486C1107.34 38.8486 1122.5 38.8486 1126.27 37.8212C1127.3 37.5428 1128.23 36.9995 1128.99 36.2457C1129.74 35.4918 1130.29 34.5537 1130.56 33.5246C1131.77 26.821 1132.14 16.6272 1130.53 10.173L1130.53 10.1727Z" fill="#FF0000"/>
<path d="M1102.48 29.1349L1115.06 21.8493L1102.48 14.5634V29.1349Z" fill="white"/>
<path d="M1228.92 14.718C1230.57 14.718 1231.82 15.0291 1232.69 15.6206C1233.56 16.2124 1234.18 17.1463 1234.56 18.4231C1234.93 19.6996 1235.09 21.4429 1235.09 23.6848V27.3279H1227.08V28.4485L1227.21 31.531C1227.3 32.2161 1227.46 32.7143 1227.71 33.0255C1227.96 33.337 1228.36 33.4926 1228.89 33.4926C1229.61 33.4926 1230.11 33.2126 1230.35 32.6523C1230.63 32.0916 1230.76 31.1575 1230.79 29.881L1234.93 30.1301C1234.96 30.3169 1234.96 30.566 1234.96 30.8772C1234.96 32.8387 1234.43 34.3023 1233.34 35.2674C1232.25 36.2324 1230.76 36.7307 1228.8 36.7307C1226.43 36.7307 1224.78 35.9836 1223.85 34.5203C1222.91 33.0567 1222.41 30.7525 1222.41 27.6703V23.9028C1222.52 18.6099 1223.45 14.7334 1228.92 14.718ZM1171.35 15.1227V30.7216C1171.35 31.6557 1171.45 32.3408 1171.66 32.7455C1172.11 33.6111 1173.25 33.3898 1173.87 32.9634C1174.23 32.7205 1174.52 32.3878 1174.71 31.9984V15.1224H1179.48V36.388H1175.74L1175.34 33.7726H1175.24C1174.22 35.7342 1172.69 36.7304 1170.67 36.7304C1167.55 36.7227 1166.79 34.4784 1166.61 32.1991L1166.6 32.0385C1166.57 31.6933 1166.56 31.3475 1166.56 31.0016V15.1227H1171.35H1171.35ZM1195.92 15.1227V30.7216C1195.92 31.6557 1196.01 32.3408 1196.23 32.7455C1196.67 33.6111 1197.82 33.3898 1198.44 32.9634C1198.8 32.7205 1199.09 32.3878 1199.28 31.9984V15.1224H1204.04V36.388H1200.31L1199.9 33.7726H1199.81C1198.78 35.7342 1197.26 36.7304 1195.23 36.7304C1192.12 36.7227 1191.36 34.4784 1191.17 32.1991L1191.16 32.0385C1191.14 31.6933 1191.13 31.3475 1191.12 31.0016V15.1227H1195.92ZM1157.53 14.718C1159.08 14.718 1160.36 15.0291 1161.3 15.683C1162.23 16.3368 1162.95 17.3334 1163.38 18.7031C1163.82 20.0732 1164.04 21.91 1164.04 24.1831V27.2653C1164.04 29.5383 1163.82 31.3443 1163.38 32.714C1162.95 34.0844 1162.26 35.0806 1161.3 35.7344C1160.33 36.3571 1159.02 36.6995 1157.4 36.6995C1155.72 36.7307 1154.41 36.3883 1153.45 35.7656C1152.48 35.1118 1151.8 34.1153 1151.39 32.7455C1150.99 31.3754 1150.8 29.5695 1150.8 27.2967V24.214C1150.8 21.9409 1151.02 20.0729 1151.49 18.7028C1151.95 17.3019 1152.67 16.3054 1153.67 15.683C1154.66 15.06 1155.94 14.7177 1157.53 14.7177V14.718ZM1211.52 6.18671V17.3954H1211.55C1211.98 16.586 1212.54 15.9321 1213.32 15.4339C1214.05 14.945 1214.91 14.6848 1215.78 14.6868C1216.93 14.6868 1217.81 14.998 1218.46 15.5895C1219.11 16.2124 1219.58 17.1775 1219.86 18.5164C1220.13 19.8134 1220.29 21.6072 1220.3 23.8692L1220.3 24.0898V27.4523C1220.3 30.5969 1219.89 32.9323 1219.15 34.4267C1218.37 35.9212 1217.18 36.6686 1215.56 36.6686C1214.66 36.6686 1213.85 36.4507 1213.11 36.0459C1212.44 35.6609 1211.9 35.1087 1211.52 34.4449L1211.45 34.3332H1211.36L1210.86 36.3571H1206.91V6.187H1211.52V6.18671ZM1192.46 7.27646V11.1369H1187.73V36.388H1183.06V11.1372H1178.3V7.27676H1192.46L1192.46 7.27646ZM1141.12 7.27646L1141.12 7.28834C1141.17 7.49055 1141.8 10.2892 1142.49 13.5498L1142.54 13.8081L1142.63 14.1986L1142.68 14.4608L1142.71 14.5924L1142.76 14.856L1142.79 14.9882L1142.85 15.2527L1142.93 15.6396C1143.4 17.8975 1143.84 20.162 1144.11 21.7856H1144.23C1144.49 20.3291 1144.86 18.4653 1145.26 16.5622L1145.36 16.0652C1145.41 15.8163 1145.46 15.5675 1145.52 15.3193L1145.6 14.9341C1146.14 12.4122 1146.69 9.89375 1147.26 7.3789L1147.27 7.33882L1147.28 7.27646H1152.05L1146.54 26.9232V36.3571H1141.84V26.9541H1141.8L1136.36 7.27616H1141.12V7.27646ZM1157.43 18.0181C1156.78 18.0181 1156.34 18.3608 1156.06 19.077C1155.78 19.7929 1155.66 20.8826 1155.66 22.4086V29.0403C1155.66 30.5972 1155.78 31.749 1156.03 32.4343C1156.28 33.119 1156.75 33.4617 1157.43 33.4617C1158.09 33.4617 1158.56 33.119 1158.84 32.4343C1159.12 31.749 1159.24 30.5972 1159.24 29.0403V22.4083C1159.24 20.8826 1159.12 19.7617 1158.84 19.0767C1158.56 18.3608 1158.09 18.0181 1157.43 18.0181ZM1212.36 18.6411C1211.98 18.9915 1211.71 19.4235 1211.55 19.9636L1211.52 20.0732V32.1537C1211.9 32.8076 1212.45 33.2435 1213.42 33.2746C1213.91 33.2746 1214.32 33.0879 1214.63 32.7143C1214.94 32.3408 1215.16 31.7178 1215.28 30.846C1215.4 30.0092 1215.47 28.8565 1215.47 27.3885V24.4322C1215.47 22.7509 1215.41 21.4744 1215.32 20.5714C1215.19 19.6685 1215.04 19.0146 1214.76 18.6411C1214.21 17.8625 1213.04 17.872 1212.36 18.6411ZM1228.83 17.9249C1228.3 17.956 1227.93 18.1116 1227.71 18.3919C1227.46 18.7031 1227.3 19.1702 1227.21 19.8552C1227.12 20.5263 1227.09 22.8721 1227.08 22.9659V24.4946H1230.57V23.1465V23.1723C1230.57 23.6435 1230.56 22.8988 1230.54 21.9846L1230.54 21.8616C1230.52 21.0581 1230.49 20.1623 1230.45 19.8552C1230.35 19.139 1230.2 18.6408 1229.95 18.3608C1229.7 18.0805 1229.33 17.9249 1228.83 17.9249H1228.83Z" fill="#282828"/>
<path d="M502.883 6.65326C505.61 8.95056 507.404 11.8624 508.481 15.2308C508.599 15.6304 508.838 15.9833 509.166 16.2405C513.761 19.9718 515.604 24.7712 514.141 30.4984C512.678 36.2256 508.712 39.6028 502.883 40.7148C502.439 40.7942 501.988 40.8344 501.537 40.8348C497.788 40.8875 494.039 40.9372 490.29 40.8143C490.29 38.0107 490.283 35.2071 490.27 32.4036C490.662 32.4036 491.057 32.3772 491.44 32.3772C494.572 32.3772 497.703 32.4153 500.831 32.3772C503.705 32.3304 505.944 30.2116 506.061 27.5456C506.19 24.6015 504.343 22.3598 501.428 21.9852C500.887 21.9179 500.793 21.6926 500.805 21.2272C500.833 20.4959 500.788 19.7635 500.67 19.0411C500.217 16.4307 498.865 14.3587 496.904 12.6233L502.883 6.65326Z" fill="#4285F4"/>
<path d="M549.065 19.0365C550.93 19.0365 552.791 19.0569 554.652 19.0365C555.217 19.0365 555.39 19.2442 555.439 19.7505C556.317 28.3925 550.877 32.7647 545.384 33.7977C537.597 35.2434 530.055 29.9406 528.919 22.1064C527.872 14.8838 533.338 7.75186 540.625 6.79782C544.723 6.26227 548.395 7.19583 551.565 9.91455C551.992 10.2774 552.121 10.4998 551.626 10.93C551.006 11.4628 550.426 12.042 549.894 12.6625C549.537 13.0693 549.326 12.9757 548.954 12.683C545.647 10.0755 542.001 9.59849 538.281 11.5124C534.5 13.4585 532.689 16.7801 532.973 21.0177C533.265 25.1616 535.428 28.1759 539.323 29.5865C543.128 30.9649 546.718 30.3093 549.695 27.3653C550.798 26.2708 551.252 24.8514 551.547 23.3677C551.655 22.8263 551.328 22.8497 550.962 22.8497C548.48 22.8497 545.987 22.8321 543.514 22.8672C542.893 22.8672 542.659 22.7297 542.706 22.0771C542.756 21.2897 542.756 20.4999 542.706 19.7125C542.68 19.1828 542.879 19.0452 543.385 19.0511C545.287 19.0511 547.178 19.0365 549.065 19.0365Z" fill="#5F6368"/>
<path d="M471.569 38.0719C470.126 37.0615 468.907 35.7637 467.989 34.2599C467.071 32.7561 466.474 31.0789 466.234 29.3333C465.435 23.8608 467.341 19.4213 471.722 16.0382C471.824 15.9458 471.922 15.8481 472.014 15.7456L472.125 15.5671C472.801 15.4968 473.27 14.9993 473.852 14.7359C476.595 13.4516 479.679 13.0853 482.646 13.6912L483.378 13.896C486.086 14.6425 488.504 16.1924 490.314 18.3414C490.665 18.754 490.653 18.9911 490.264 19.3657C488.924 20.6553 487.606 21.9683 486.31 23.3047C485.763 23.8637 485.274 24.4753 484.712 25.125C484.376 24.6217 484.2 24.3349 484.001 24.0627C483.297 23.0903 482.28 22.3897 481.12 22.0786C479.961 21.7675 478.73 21.8649 477.633 22.3543C476.537 22.8437 475.643 23.6955 475.1 24.7665C474.558 25.8375 474.4 27.0625 474.654 28.2359C475.02 29.9625 476.117 31.1009 477.58 31.9438L471.569 38.0719Z" fill="#FBBC05"/>
<path d="M608.503 32.0183C605.737 34.8687 600.95 34.4824 598.003 31.5266C595.536 29.0537 594.783 26.0599 595.685 22.7471C596.58 19.4987 598.752 17.3419 602.076 16.5312C604.236 16.0074 606.276 16.3556 608.023 17.8511C608.14 17.9535 608.251 18.1086 608.45 18.0647C608.638 16.8941 608.64 16.8941 609.914 16.8941C610.669 16.8941 611.649 16.5722 612.12 17.0316C612.591 17.4911 612.266 18.4744 612.269 19.2294C612.281 23.6231 612.281 28.0129 612.269 32.3987C612.289 33.525 612.176 34.6497 611.933 35.7496C611.134 39.0448 609.027 40.988 605.72 41.6552C601.886 42.4308 598.404 40.8417 596.443 37.485C596.08 36.8645 595.986 36.4314 596.841 36.2441C596.949 36.2147 597.055 36.1755 597.157 36.1271C597.833 35.852 598.503 35.372 599.191 35.3486C599.955 35.3223 600.01 36.329 600.478 36.8119C601.974 38.3629 603.739 38.6556 605.67 38.0059C607.546 37.3767 608.342 35.8695 608.477 33.979C608.529 33.4113 608.503 32.8026 608.503 32.0183ZM599.311 25.1263C599.311 25.378 599.296 25.6326 599.311 25.8843C599.401 26.9425 599.824 27.9447 600.52 28.7472C601.216 29.5496 602.148 30.1108 603.183 30.3502C605.231 30.7833 607.148 29.8556 608.187 27.9153C608.702 26.8763 608.914 25.7125 608.796 24.5586C608.608 21.439 605.91 19.3143 602.998 19.9874C600.844 20.4849 599.299 22.6271 599.311 25.1263Z" fill="#5F6368"/>
<path d="M482.649 13.7032C479.686 13.1006 476.608 13.4669 473.87 14.748C473.284 15.0114 472.819 15.5089 472.143 15.5791C472.687 13.0828 473.911 10.9201 475.508 8.95643C477.068 7.01077 478.995 5.39154 481.181 4.19132C483.366 2.9911 485.767 2.23343 488.245 1.96163C490.724 1.68984 493.232 1.90925 495.625 2.60732C498.019 3.30539 500.251 4.46843 502.195 6.02993C502.435 6.22015 502.649 6.44549 502.877 6.65327L496.91 12.6146L496.073 12.0497C491.803 9.23738 485.871 9.96022 482.649 13.7032Z" fill="#EA4335"/>
<path d="M724.893 32.2456C722.224 35.813 716.679 35.9886 713.541 32.2075C710.106 28.0694 711.042 21.4526 715.502 18.6198C716.945 17.7077 718.67 17.3498 720.356 17.6124C722.043 17.875 723.577 18.7403 724.674 20.0479C724.767 20.135 724.865 20.2171 724.967 20.2937C724.92 19.5943 724.849 19.0002 724.847 18.4032C724.847 16.0093 724.847 13.6154 724.847 11.2216C724.847 10.7445 724.926 10.4665 725.484 10.5309C726.286 10.6187 727.308 10.1856 727.826 10.7124C728.285 11.166 727.957 12.1756 727.957 12.916C727.957 19.7874 727.957 26.6706 727.978 33.5332C727.978 34.1888 727.878 34.5399 727.117 34.4551C726.45 34.3819 725.59 34.6453 725.148 34.3146C724.706 33.9839 725.069 33.0533 724.969 32.3948C724.949 32.3427 724.923 32.2928 724.893 32.2456ZM714.624 26.4101C714.598 26.9976 714.671 27.5854 714.841 28.1485C715.467 30.2643 716.802 31.6895 719.029 32.0612C719.965 32.2554 720.938 32.1538 721.813 31.7705C722.689 31.3872 723.424 30.7412 723.916 29.9219C725.379 27.6919 725.417 25.26 724.13 22.9598C722.315 19.7172 718.066 19.4977 715.786 22.4359C714.899 23.5773 714.601 24.8854 714.624 26.4101Z" fill="#5F6368"/>
<path d="M556.812 25.1733C556.812 20.1485 560.593 16.3499 565.621 16.3294C570.649 16.3089 574.523 20.1339 574.523 25.1733C574.523 30.1484 570.672 33.985 565.665 33.985C560.658 33.985 556.815 30.1747 556.812 25.1733ZM570.59 25.6708C570.675 22.001 568.029 19.4257 565.082 19.8822C562.937 20.2129 561.521 21.4479 560.95 23.4906C560.327 25.7118 560.766 27.7574 562.592 29.3143C564.073 30.5727 565.811 30.8507 567.567 30.0401C569.58 29.1182 570.535 27.4472 570.59 25.6708Z" fill="#5F6368"/>
<path d="M593.76 25.1616C593.76 30.1923 589.988 33.9704 584.951 33.9851C579.915 33.9997 576.084 30.1572 576.093 25.1031C576.093 20.1046 579.935 16.3236 584.966 16.3236C589.996 16.3236 593.76 20.1222 593.76 25.1616ZM589.865 25.1031C589.847 21.884 587.269 19.4345 584.372 19.8793C583.274 20.0239 582.255 20.5273 581.473 21.3112C580.691 22.0951 580.191 23.1155 580.049 24.2135C579.68 26.6044 580.763 28.8959 582.759 29.9289C586.095 31.6585 589.882 29.0861 589.865 25.1031Z" fill="#5F6368"/>
<path d="M620.631 26.056C620.686 21.8799 623.185 18.4881 626.844 17.616C630.92 16.6473 634.531 18.4939 636.276 22.4184C636.969 23.9811 636.969 23.9782 635.398 24.6308C632.225 25.939 629.065 27.2647 625.875 28.5494C625.143 28.842 625.254 29.1084 625.614 29.5971C627.443 32.0729 631.078 32.1695 633.156 29.7141C633.686 29.0879 634.002 29.1288 634.552 29.5678C635.083 29.9871 635.648 30.362 636.241 30.6887C636.761 30.9813 636.7 31.2213 636.369 31.6339C635.202 33.0993 633.607 34.1639 631.806 34.6791C630.005 35.1943 628.088 35.1344 626.323 34.5078C622.825 33.2757 620.581 29.9366 620.631 26.056ZM629.117 20.8117C626.814 20.8117 624.611 22.913 624.537 25.1693C624.537 25.62 624.537 25.8746 625.123 25.6287C627.35 24.6835 629.586 23.7646 631.827 22.8544C632.36 22.6408 632.263 22.3803 631.974 22.0496C631.62 21.6406 631.179 21.3152 630.684 21.0971C630.19 20.879 629.652 20.7735 629.112 20.7883L629.117 20.8117Z" fill="#5F6368"/>
<path d="M657.198 10.0217C660.443 10.0451 663.267 11.0694 665.556 13.4457C665.957 13.8642 665.93 14.0983 665.526 14.4495C664.994 14.909 664.569 15.6611 663.97 15.825C663.37 15.9889 663.001 15.0641 662.468 14.6836C659.665 12.6936 656.633 12.4946 653.548 13.7296C650.464 14.9646 648.594 17.379 648.099 20.7122C647.631 23.8641 648.172 26.7847 650.44 29.1786C654.057 32.9831 660.098 32.9831 663.902 29.1318C664.464 28.567 664.76 28.5962 665.178 29.1611C665.268 29.2662 665.366 29.364 665.471 29.4537C666.785 30.7648 666.826 30.8175 665.409 31.9734C661.341 35.2921 656.75 35.9505 652.009 33.8961C647.268 31.8417 644.927 27.9904 644.757 22.831C644.523 15.7343 649.483 11.485 653.744 10.4402C654.874 10.159 656.034 10.0184 657.198 10.0217Z" fill="#5F6368"/>
<path d="M683.563 17.5693C688.479 17.5693 691.932 21.1806 691.932 26.3079C691.932 31.3093 688.386 34.9703 683.536 34.9849C678.687 34.9996 675.073 31.3034 675.049 26.2815C675.026 21.2597 678.596 17.5693 683.563 17.5693ZM678.242 26.1937C678.242 26.5039 678.219 26.8142 678.242 27.1214C678.328 28.2084 678.736 29.245 679.414 30.0992C680.091 30.9535 681.008 31.5866 682.047 31.918C683.055 32.2094 684.127 32.1884 685.123 31.8577C686.119 31.527 686.991 30.9021 687.625 30.0655C689.316 27.8706 689.214 24.233 687.376 22.1639C686.608 21.2461 685.528 20.6438 684.344 20.4724C680.897 19.9983 678.231 22.4946 678.242 26.2054V26.1937Z" fill="#5F6368"/>
<path d="M471.57 38.0721C473.581 36.0333 475.592 33.9945 477.601 31.9557C478.67 32.2999 479.793 32.4486 480.914 32.3947C484.034 32.3947 487.151 32.3947 490.279 32.3947C490.279 35.1983 490.286 38.0019 490.3 40.8055C486.325 40.8318 482.348 40.9694 478.383 40.7382C475.886 40.5959 473.5 39.6621 471.57 38.0721Z" fill="#34A853"/>
<path d="M705.833 32.3012C703.933 34.6073 701.592 35.4209 698.777 34.777C696.418 34.2356 694.782 32.2485 694.495 29.6088C694.203 26.8872 694.408 24.1509 694.355 21.4146C694.337 20.5133 694.372 19.6119 694.355 18.7105C694.34 18.2511 694.463 18.0433 694.964 18.0726C695.777 18.1194 696.831 17.815 697.346 18.216C697.861 18.6169 697.513 19.7465 697.521 20.5572C697.548 22.8984 697.521 25.2396 697.521 27.5808C697.511 28.0877 697.55 28.5945 697.638 29.0938C697.931 30.5395 698.666 31.5901 700.141 31.9734C701.794 32.4036 703.278 32.1198 704.448 30.7824C705.443 29.641 705.812 28.2802 705.815 26.8023C705.815 24.1831 705.833 21.5639 705.815 18.9447C705.815 18.3184 705.92 18.0052 706.632 18.0901C707.343 18.175 708.297 17.7975 708.753 18.2306C709.21 18.6637 708.897 19.6148 708.9 20.3377C708.914 24.7596 708.9 29.1816 708.923 33.6006C708.923 34.3176 708.724 34.5575 708.028 34.461C707.331 34.3644 706.538 34.739 706.07 34.3059C705.601 33.8727 706.026 33.0562 705.833 32.3012Z" fill="#5F6368"/>
<path d="M618.796 20.5757C618.796 24.5997 618.796 28.6265 618.796 32.6534C618.796 33.2241 618.676 33.4582 618.058 33.4172C617.242 33.3558 616.422 33.3558 615.606 33.4172C614.863 33.4816 614.883 33.0778 614.883 32.5539C614.883 24.9801 614.883 17.4063 614.883 9.83254C614.883 9.10677 614.573 8.17321 615.015 7.71375C615.457 7.25429 616.402 7.57621 617.125 7.56743C618.772 7.54694 618.772 7.56743 618.772 9.1653L618.796 20.5757Z" fill="#5F6368"/>
<path d="M672.479 22.5179C672.479 26.2346 672.479 29.9483 672.497 33.6621C672.497 34.3 672.333 34.5195 671.698 34.4522C670.975 34.3732 670.044 34.7449 669.57 34.3088C669.096 33.8728 669.415 32.9275 669.412 32.2076C669.412 25.2864 669.412 18.3623 669.386 11.4294C669.386 10.6744 669.582 10.4168 670.322 10.5163C671.013 10.61 671.92 10.2237 672.351 10.6744C672.781 11.1251 672.471 12.0176 672.473 12.7229C672.488 15.9889 672.479 19.2549 672.479 22.5179Z" fill="#5F6368"/>
<path d="M472.137 15.5733L472.026 15.7512L472.137 15.5733Z" fill="#81ABE0"/>
</svg>
