<svg width="73" height="69" viewBox="0 0 73 69" fill="none" xmlns="http://www.w3.org/2000/svg">
<path d="M65.9798 13.849H67.9465C68.4561 13.8467 68.9611 13.9452 69.4325 14.1388C69.9038 14.3324 70.3323 14.6173 70.6931 14.977C71.054 15.3368 71.3402 15.7644 71.5352 16.2352C71.7302 16.706 71.8302 17.2107 71.8294 17.7203V53.7067C71.8294 54.2158 71.7288 54.72 71.5335 55.1902C71.3382 55.6604 71.0519 56.0875 70.6912 56.4468C70.3304 56.8061 69.9023 57.0906 69.4313 57.2841C68.9603 57.4775 68.4557 57.576 67.9465 57.574H5.89445C5.38668 57.574 4.88388 57.4739 4.41478 57.2796C3.94568 57.0852 3.51948 56.8003 3.16052 56.4412C2.80156 56.082 2.51688 55.6557 2.32274 55.1865C2.1286 54.7173 2.02881 54.2144 2.02906 53.7067V17.7203C2.02804 17.2121 2.12728 16.7087 2.3211 16.2389C2.51492 15.7692 2.79951 15.3423 3.15858 14.9827C3.51764 14.6231 3.94411 14.3378 4.41358 14.1433C4.88305 13.9488 5.38628 13.8488 5.89445 13.849H7.87665" stroke="#80D379" stroke-width="2" stroke-linecap="round" stroke-linejoin="round"/>
<path d="M63.6425 1.75769H10.2065C8.9477 1.75769 7.92725 2.77814 7.92725 4.03693V39.1342C7.92725 40.3929 8.9477 41.4134 10.2065 41.4134H63.6425C64.9013 41.4134 65.9217 40.3929 65.9217 39.1342V4.03693C65.9217 2.77814 64.9013 1.75769 63.6425 1.75769Z" stroke="#80D379" stroke-width="2" stroke-linecap="round" stroke-linejoin="round"/>
<path d="M1.97876 48.1542H71.9208" stroke="#80D379" stroke-width="2" stroke-linecap="round" stroke-linejoin="round"/>
<path d="M7.92725 11.0281H65.9217" stroke="#80D379" stroke-width="2" stroke-linecap="round" stroke-linejoin="round"/>
<path d="M52.9682 5.32812H51.2501C51.0764 5.32812 50.9355 5.46894 50.9355 5.64264V7.34333C50.9355 7.51703 51.0764 7.65784 51.2501 7.65784H52.9682C53.1419 7.65784 53.2827 7.51703 53.2827 7.34333V5.64264C53.2827 5.46894 53.1419 5.32812 52.9682 5.32812Z" fill="#80D379"/>
<path d="M38.1239 51.9088H35.7747C35.1314 51.9088 34.6099 52.4303 34.6099 53.0737C34.6099 53.717 35.1314 54.2385 35.7747 54.2385H38.1239C38.7672 54.2385 39.2887 53.717 39.2887 53.0737C39.2887 52.4303 38.7672 51.9088 38.1239 51.9088Z" fill="#80D379"/>
<path d="M57.6123 5.32812H55.8941C55.7204 5.32812 55.5796 5.46894 55.5796 5.64264V7.34333C55.5796 7.51703 55.7204 7.65784 55.8941 7.65784H57.6123C57.786 7.65784 57.9268 7.51703 57.9268 7.34333V5.64264C57.9268 5.46894 57.786 5.32812 57.6123 5.32812Z" fill="#80D379"/>
<path d="M62.2541 5.32812H60.5359C60.3622 5.32812 60.2214 5.46894 60.2214 5.64264V7.34333C60.2214 7.51703 60.3622 7.65784 60.5359 7.65784H62.2541C62.4278 7.65784 62.5686 7.51703 62.5686 7.34333V5.64264C62.5686 5.46894 62.4278 5.32812 62.2541 5.32812Z" fill="#80D379"/>
<path d="M25.5966 16.5961H13.1015C12.4271 16.5961 11.8804 17.1428 11.8804 17.8172V34.8727C11.8804 35.5471 12.4271 36.0939 13.1015 36.0939H25.5966C26.271 36.0939 26.8177 35.5471 26.8177 34.8727V17.8172C26.8177 17.1428 26.271 16.5961 25.5966 16.5961Z" stroke="#80D379" stroke-width="2" stroke-linecap="round" stroke-linejoin="round"/>
<path d="M32.0342 20.2964H60.5868" stroke="#80D379" stroke-width="2" stroke-linecap="round" stroke-linejoin="round"/>
<path d="M32.0342 24.9889H60.2548" stroke="#80D379" stroke-width="2" stroke-linecap="round" stroke-linejoin="round"/>
<path d="M32.0342 29.6813H49.6139" stroke="#80D379" stroke-width="2" stroke-linecap="round" stroke-linejoin="round"/>
<path d="M43.6343 66.588V57.5895H30.217V66.588" stroke="#80D379" stroke-width="2" stroke-linecap="round" stroke-linejoin="round"/>
<path d="M43.5525 65.989H55.8689C56.0301 65.989 56.1896 66.0208 56.3385 66.0824C56.4873 66.1441 56.6226 66.2345 56.7365 66.3484C56.8505 66.4623 56.9408 66.5976 57.0025 66.7465C57.0642 66.8953 57.0959 67.0549 57.0959 67.216C57.0959 67.3771 57.0642 67.5367 57.0025 67.6855C56.9408 67.8344 56.8505 67.9697 56.7365 68.0836C56.6226 68.1975 56.4873 68.2879 56.3385 68.3496C56.1896 68.4112 56.0301 68.443 55.8689 68.443H17.9819C17.6564 68.443 17.3444 68.3137 17.1143 68.0836C16.8842 67.8535 16.7549 67.5414 16.7549 67.216C16.7549 66.8906 16.8842 66.5785 17.1143 66.3484C17.3444 66.1183 17.6564 65.989 17.9819 65.989H30.1352" fill="#80D379"/>
<path d="M43.7371 66.5898H30.3198" stroke="#80D379" stroke-width="2" stroke-miterlimit="10"/>
</svg>
