<svg id="_1" data-name=" 1" xmlns="http://www.w3.org/2000/svg" xmlns:xlink="http://www.w3.org/1999/xlink" viewBox="0 0 2709.67 2100"><defs><style>.cls-1{fill:url(#_2_2);}.cls-2{fill:url(#_2_2-2);}.cls-3{fill:url(#_2_2-3);}.cls-4{fill:url(#_3_2);}.cls-5{fill:url(#_3_2-2);}.cls-6{fill:#9fccf1;}.cls-7{fill:#e7ecf1;}.cls-8{fill:#d9e6f1;}.cls-9{fill:#fff;}.cls-10{fill:#257fb7;}</style><linearGradient id="_2_2" x1="1387.26" y1="424.33" x2="1381.17" y2="230.3" gradientUnits="userSpaceOnUse"><stop offset="0" stop-color="#68a2f1"/><stop offset="1" stop-color="#fff"/></linearGradient><linearGradient id="_2_2-2" x1="1399.13" y1="503.55" x2="1400.14" y2="278.03" xlink:href="#_2_2"/><linearGradient id="_2_2-3" x1="1950.77" y1="525.73" x2="1841.88" y2="130.27" xlink:href="#_2_2"/><linearGradient id="_3_2" x1="938.78" y1="570.54" x2="927.96" y2="418.53" gradientTransform="matrix(0.74, -0.04, 0.06, 1.13, 1578.39, 78.72)" gradientUnits="userSpaceOnUse"><stop offset="0" stop-color="#68a2f1"/><stop offset="0.39" stop-color="#93bdf1"/></linearGradient><linearGradient id="_3_2-2" x1="-1524.14" y1="741.55" x2="-1541.15" y2="502.53" xlink:href="#_3_2"/></defs><path class="cls-1" d="M1272.92,448.58c-19.17-11.23-23.51-50.63,1.73-59.32s42.93-3.22,42.93-3.22-9.26-17.6-4-30.55,33,9,33,9-6.71-18.32,2.69-27.38,43.3,5.63,57.84,32.77c0,0,23.62-25.3,51.4-10.13s79.63,82.07,50.46,87.29S1292.08,459.81,1272.92,448.58Z"/><path class="cls-2" d="M1509,447.07c9.58-1.72,10.42-10.1,6.24-21.11-14.42-9.94-36.33-16.11-50.78-20.22-23.83-6.79-45.9-17.75-61-14.09s-10.85,24.7-10.85,24.7-45.31-45.06-56.54-35.67,4.56,29.23,4.56,29.23-41.36-7.3-54.14,9.78c-8.39,11.22-4.77,24.31-1.28,32C1331.91,458.17,1483,451.7,1509,447.07Z"/><path class="cls-3" d="M2082.18,403.07c-44.18-27-58,28.7-58,28.7s-15.47-33.9-87.06-50.23-39.87,66.12-39.87,66.12-19.88-34.09-35.78-34-17.85,15.22-17.85,15.22-48.36-22.24-83.35,15.47c-14.53,15.66-25.46,79.29,51.14,87,134.69,13.61,257-7.17,291.3-23.08S2126.36,430.06,2082.18,403.07Z"/><path class="cls-4" d="M2218.39,611.49c38.61-17.22,52.3,8.26,52.3,8.26s21.81-33.71,61.38-32.64,72.58,31.61,77.8,82.18c6,58-79.72,45.83-122.38,40.44s-73.85-3.53-88.58-32.72C2187.56,654.53,2193.2,622.71,2218.39,611.49Z"/><path class="cls-5" d="M364.93,857.38c60.71-27.07,82.24,13,82.24,13s34.29-53,96.5-51.32S657.79,868.74,666,948.27c9.42,91.23-125.34,72.06-192.42,63.57s-116.12-5.53-139.28-51.43C316.46,925.06,325.33,875,364.93,857.38Z"/><path class="cls-6" d="M555.8,1183.65s-92.87-11.86-117.92-13.11-102.44,38.69-102.44,127.31H763.53S615.79,1186.77,555.8,1183.65Z"/><path class="cls-7" d="M437.88,1170.54s195.23,13.73,244.62,237.14c10.74,48.59,27.49,110.35,45.18,171.53a346.69,346.69,0,0,0,333.09,250.31h580.58s-126.93-370.65-225.06-560.86a181.24,181.24,0,0,0-161.09-98.12Z"/><path class="cls-8" d="M2080.4,1821.1s63.88-29.47,80.34-38.67,49.82-65.49,14.49-121.93l-272.67,170.69S2041,1843,2080.4,1821.1Z"/><path class="cls-8" d="M2175.23,1660.5l-144.49,169H1278.89c11.12-2,20.56-4.72,27.2-8.42,0,0,63.89-29.47,80.34-38.67s49.82-65.49,14.49-121.93Z"/><path class="cls-8" d="M964.9,439.22l90,91.45-26.39-72,6.7,2.39c85,30.47,153.35,112.77,224.81,241.27s72.36,402.9,72.36,402.9l-55.88,96.42,53.09-38.59c-11.59,119.76-99.77,257.8-99.77,257.8s-14.64,24.82-32,29.22c-21.31,5.39-96.57-22.55-122.75-39.64-21.87-14.27-60.31-197.22-80.14-296.46-2.55-12.76,83.39,60.63,81.53,51.18-1-5-90.05-94.25-90.81-98.11-7.68-38.91-25-116.29-41.77-189.87l112.56,54.6L933.32,831.29c-16.42-71.48-30-129.68-30-129.68l108.23,38L836.8,624.73s-105.7-95.86-78.39-164C783.73,397.62,933,432,964.9,439.22Z"/><polygon class="cls-6" points="1136.78 760.08 983.01 654.26 1139.35 733.52 1136.78 760.08"/><polygon class="cls-6" points="1165.78 869.71 969.31 766.11 1172.16 911.53 1165.78 869.71"/><path class="cls-6" d="M1135.36,723.28l-36.55-152.6s63.48,140.74,46.74,182.29C1145.55,753,1135.25,747.28,1135.36,723.28Z"/><path class="cls-6" d="M1110.38,1428.12s24.75-59.26,18.52-111.47,6.81-238.77,10.94-313.75.28-66.17-20.17-152.09-.22-120.56-56.17-189.84-211-164.76-132.82-142.16,141.91,100.42,141.91,100.42,49.88,63.55,71.12,152.86,37.73,240,36.88,258.91-1.24,228.89-9.83,267.16-13.1,126.29-19.47,135.53S1142.46,1440.69,1110.38,1428.12Z"/><polygon class="cls-6" points="1181.08 1018.23 1240.99 770.5 1176.4 970.53 1181.08 1018.23"/><path class="cls-9" d="M1153.24,1452.75c16.26-57.94,23.45-119.32,29.24-179.07,5.92-61.18,9.49-122.82,9.46-184.29-.07-119.41-13.17-242.67-52.88-355.85-19.31-55.06-46.13-105.72-88.85-146.15-31.43-29.75,24.93,36.18,51.31,88.8s41.85,111,52.83,168.64c22.91,120.28,24.21,243,14.89,364.71-4.65,60.75-11.78,121.42-23.34,181.26-5.54,28.69-13.25,56.84-19.86,85.28-6.94,29.9-13.7,59.86-19.8,90-2.37,11.7-4.77,23.44-6.43,35.27-.23,1.7-2.34,12.24.3,11.69,3.45-.71,7.59-17,8.56-19.64,4.81-13.2,9.18-26.56,13.5-39.92,9-27.84,17.6-55.81,26-83.82C1149.89,1464,1151.59,1458.38,1153.24,1452.75Z"/><polygon class="cls-6" points="962.88 961.56 1061.53 1022.54 1083.65 1036.22 971.39 999.97 962.88 961.56"/><path class="cls-10" d="M1676.55,1552.8l-39.53-5.61-17.54,32.25,23,3.27-.67,4.73-45.1-6.41.68-4.73,17.16,2.44,62.77-116.12,2.88.41,26.11,128.74,16.7,2.37-.67,4.73-59.29-8.42.67-4.73,20.14,2.86Zm-37.09-10.09,36.09,5.13-10.46-52.32-.38,0Z"/><path class="cls-10" d="M1564.52,1137.28l-28-134.81-22.74,4.73-1.16-5.54,68.87-14.34q22.86-4.76,40.47-1.66t32.42,19.7a82.28,82.28,0,0,1,19.4,38.7q4.88,23.39-3.27,44.27t-22.41,30.6q-14.27,9.72-36.68,14.39l-68.43,14.24-1.16-5.55Zm-2.16-140.2,28.06,134.81,18.93-3.94q14.89-3.1,23.75-7.78t13.09-15.1q4.24-10.41,3.5-24.91t-5.45-37.11q-5.67-27.21-15.36-39.15t-20.37-13.07q-10.68-1.12-26.78,2.22Z"/><path class="cls-10" d="M1560.2,1343.18l-61.07-127.48-21.71,10.4-2.52-5.25,68.12-32.63,2.51,5.25-21.92,10.5,28.25,59,59.57-28.54-28.24-59-21.51,10.3-2.51-5.25,67.7-32.43,2.51,5.25-21.71,10.4,61.07,127.48,21.71-10.41L1693,1286l-67.7,32.43-2.52-5.24,21.51-10.3-30.32-63.28-59.57,28.54,30.31,63.28,21.92-10.5,2.51,5.24L1541,1358.82l-2.51-5.24Z"/><path class="cls-10" d="M1640.64,804.26l10.26,144.12,35-2.49q10.13-.72,15.83-2.65t10.94-8.14a40.81,40.81,0,0,0,7.74-14.46,194.76,194.76,0,0,0,5-22.81l5.46-.39-.67,51.26L1599.09,958l-.42-5.93,24.54-1.75L1613,806.23,1588.41,808,1588,802l78.17-5.56.42,5.93Z"/><path class="cls-10" d="M1981.69,988.09l41.14,35.07-44.58,102,.34.29,93.84-60,40.1,34.2-3.72,4.36-17-14.51-90.34,106,17,14.5-3.71,4.37-54-46,3.72-4.36L1982,1178.9l92-107.92-.34-.29-129.86,83.19-3.93-3.35,61.61-141.38-.34-.29-92,107.92,17.53,15-3.71,4.36-39.09-33.32,3.72-4.36,17.19,14.65,90.34-105.95L1978,992.45Z"/><path class="cls-10" d="M1857.49,882.75q-27.2-8.54-39-37.3t-3.67-54.7q9.78-31.17,36.63-46.93t53.19-7.48q24.8,7.78,37.42,36.35t3.7,57q-9.2,29.29-35.86,45.22T1857.49,882.75Zm44.83-141.27a42.55,42.55,0,0,0-22.31-1.21q-10.82,2.41-18.22,14.45t-17.61,44.56q-7.07,22.5-9.39,36.47t2.61,25.18q4.92,11.21,21.34,16.36a44.91,44.91,0,0,0,21.81,1q11.78-2.17,19.77-16.83t18.18-47.09q9.23-29.4,8.93-41.78t-7.16-20A39.56,39.56,0,0,0,1902.32,741.48Z"/><path class="cls-10" d="M2064.39,1315.74l-42.67,17.2,6.63,16.45-3.86,1.56-20.42-50.63,3.87-1.56,6.51,16.14,93.91-37.86-6.51-16.15,3.87-1.55,21.11,52.37q7.15,17.74,2.89,29.9t-15.78,16.8a27.35,27.35,0,0,1-23.47-1.06q-11.66-5.83-20.15-26.91Zm51.24-20.66-47.29,19.07,3.94,9.78a57.34,57.34,0,0,0,6.42,12.21q3.33,4.56,10.35,6t18.61-3.23q10.24-4.12,13.75-9.29t2.84-10a49.46,49.46,0,0,0-3.3-11.36Z"/><path class="cls-10" d="M1798.31,1632.9l-4.46,3.3a110,110,0,0,1-7.28-9.1q-11.92-16.08-15.74-38t17.61-37.76a69.54,69.54,0,0,1,1.12-47q8.78-23.55,27.57-37.48,24-17.76,54.55-15.22t47,24.66q15.22,20.55,9.8,50.71t-30.09,48.43q-20.11,14.89-47,15.33t-44.71-14.83q-19.07,14.11-21.17,25.63T1798.31,1632.9Zm116-153.12a41.91,41.91,0,0,0-18.08-14.17q-10.89-4.45-23.59,1.43t-40.52,26.49q-18.89,14-28.41,23.35t-11.7,21q-2.17,11.7,8.26,25.78,7.77,10.5,18.84,14t24.92-3.29q13.86-6.81,39.48-25.79,24.59-18.2,32.34-28.48t6-21.49A42.56,42.56,0,0,0,1914.33,1479.78Z"/><path class="cls-10" d="M1998.42,1236.75l-23.76,33.75-4.49-3.28q12.28-37-11.93-54.66-13.42-9.78-26.25-7.78t-18.64,10q-5.38,7.37-3,17t16.71,24.46q14.31,14.77,19.92,25.1t4.57,24.11a49.83,49.83,0,0,1-10,26q-13.77,18.87-35.23,22.43t-39.67-9.71q-14.84-10.85-21.55-32.62l-14.87,1.48-3.36-2.45,26.21-35.91,4.13,3q-6.74,21.08-2.8,37t16,24.74q12,8.74,27.75,8.14t24.58-12.66a28.81,28.81,0,0,0,5.54-22.16q-1.87-12-15.52-26t-19.42-23.57q-5.79-9.57-5.4-22.58a41.14,41.14,0,0,1,8.08-23.54q10.62-14.55,29.33-18.45t36.41,9q14.85,10.83,20.83,29.59a42.29,42.29,0,0,0,11.86-3.38Z"/><path class="cls-10" d="M1766.88,1389.05,1684,1356.44l1.62-4.11L1787,1276.88l-25.47-10q-13.95-5.49-21.67-2T1724.33,1281l-3.79-1.49,13.11-28.35,77.55,30.51-1.14,2.9-102.82,76.28,26.44,10.4q11.37,4.49,18,4.51t14.47-7.06a58,58,0,0,0,12.56-16l3.95,1.56Z"/><path class="cls-10" d="M1747,732.38l-.82-8.79q-1-10.79-3.09-14t-9.83-2.47q-14,1.3-13.47,6.65a6.64,6.64,0,0,0,1.48,3.3,8,8,0,0,1,1.57,4.24,6.53,6.53,0,0,1-1.82,5.61,8.27,8.27,0,0,1-5.09,2.34,7.38,7.38,0,0,1-6.08-1.82,8.21,8.21,0,0,1-2.59-5.37q-.65-6.9,7-12.35t22-6.79q11.55-1.08,17.14,1.09t7.22,6a39.69,39.69,0,0,1,2.29,11.09l3,31.73q.64,7,1.8,8.61a3.3,3.3,0,0,0,3.22,1.44c2.07-.2,3.95-1.79,5.64-4.79l2.07-.19q-1.07,12.79-13.48,13.95-12,1.13-15.6-12.45-8.79,14.73-22.33,16-9,.84-14.76-3.53a15.59,15.59,0,0,1-6.46-11.44Q1703.95,738.5,1747,732.38Zm1.25,13.27-.87-9.31q-15.9,2.1-20.59,6.75t-4,12.59q.54,5.77,3.9,8.68a9.49,9.49,0,0,0,7.32,2.53,14,14,0,0,0,8.87-4.26,18.06,18.06,0,0,0,4.83-7.37A26.55,26.55,0,0,0,1748.27,745.65Z"/><path class="cls-10" d="M1720.27,991.83l0,40.29h.23q4.29-9.06,14.1-9.06,8.42,0,14.67,7.12a24.41,24.41,0,0,1,6.26,16.59,25.65,25.65,0,0,1-6.12,16.74q-6.14,7.46-14.21,7.46-9.75,0-14.68-10.48h-.23v9.75a65.91,65.91,0,0,0-10.78-.69h-8.37v-2.92h8l0-71h-8V992.7h8A56.12,56.12,0,0,0,1720.27,991.83Zm14.26,76.16q5.73,0,7-4.53t1.22-17q0-12.74-1.3-16.77c-.86-2.69-3.24-4-7.14-4a12.32,12.32,0,0,0-8,2.78,14.67,14.67,0,0,0-4.78,6.54q-1.35,3.75-1.34,13.21,0,9.22,4.39,14.53T1734.53,1068Z"/><path class="cls-10" d="M1544.79,885.13l2.22-1.08q2.09,8.22-.54,14.35a18,18,0,0,1-9,9.23,21.58,21.58,0,0,1-17.88.7,23.59,23.59,0,0,1-13.27-11.94,23.92,23.92,0,0,1-1.2-18.22,22.51,22.51,0,0,1,12.18-14q6.54-3.18,12.28-1.86t7.75,5.44a6.1,6.1,0,0,1,.38,4.4,5.13,5.13,0,0,1-2.88,3.44,5.72,5.72,0,0,1-4.36.4,5.35,5.35,0,0,1-3.25-2.94,5.5,5.5,0,0,1-.27-3.76,5.33,5.33,0,0,0,.24-2.73c-.45-.93-1.48-1.43-3.1-1.52a11.22,11.22,0,0,0-5.46,1.35q-5.36,2.61-6.56,6.76t3.34,13.48q4.53,9.33,7.19,13.55a14.37,14.37,0,0,0,6,5.74q3.36,1.53,8.2-.83Q1547,900.13,1544.79,885.13Z"/><path class="cls-10" d="M2325.55,1238.15,2253.24,1219l-2,7.48-2.83-.75,1.64-6.2a126.08,126.08,0,0,0,2.62-12.59l9.09,2.4.06-.22q-8.64-7-6.06-16.78,2.07-7.81,10.6-11.93a24.37,24.37,0,0,1,17.34-1.78,25,25,0,0,1,14.85,10.65q5.43,8.17,3.17,16.7-2.29,8.7-11.2,10.73l-.06.23,34.36,9.08,2.66-10.08,2.83.75-2.67,10.08A78.09,78.09,0,0,0,2325.55,1238.15Zm-26.39-32.48q1.59-6-2.52-8.75t-17.91-6.37q-11.91-3.15-15.53-2c-2.41.74-4,2.56-4.76,5.44a12.36,12.36,0,0,0,1,9,15.31,15.31,0,0,0,6,6.56q3.75,2.17,12.83,4.58,8.66,2.3,14,0A12,12,0,0,0,2299.16,1205.67Z"/><path class="cls-10" d="M1779.43,870.77l-27-10.62q-6.59,15.63-5.89,20.13c.46,3,2.52,5.21,6.19,6.66q11.29,4.44,20.47-7.1l2.29.9q-4.89,7.26-11.28,9.11a18.77,18.77,0,0,1-12.43-.51,22,22,0,0,1-12.42-12.25,25,25,0,0,1,12.38-31.87,21,21,0,0,1,17-.72,18.93,18.93,0,0,1,10.51,10Q1782.59,861.67,1779.43,870.77Zm-26-13,15.52,6.1a59.6,59.6,0,0,0,2.7-5.59q3.36-8.53-4.38-11.57a9,9,0,0,0-6.83-.32,7.77,7.77,0,0,0-4.38,4.71Z"/><path class="cls-10" d="M1794.9,1114.45l33-83.84-20.35-8,2.46-6.25,20.35,8q11.79-32.86,33.56-45.9t41.61-5.21a28.12,28.12,0,0,1,14.44,12q4.88,8.3,1.79,16.14a13.9,13.9,0,0,1-6.94,7.74,11.88,11.88,0,0,1-10,.33,11.38,11.38,0,0,1-6.39-6.06,11,11,0,0,1-.15-9q2.85-7.23,12.82-8.83-2.37-4.75-9.49-7.56a24.41,24.41,0,0,0-14.63-.94q-7.77,1.76-12.42,9.62t-12,26.5l-8.11,20.59,22.8,9-2.46,6.25-22.8-9-33,83.84,20.59,8.1-2.46,6.25-63-24.79,2.46-6.25Z"/><path class="cls-10" d="M1777.6,1424.05a15.29,15.29,0,0,1-3,9,12.48,12.48,0,0,1-11.63,5.16q-7.07-.69-10-3l-2.23-1.54q-1.5-1.17-3.87-3.41c-1.58-1.49-2.43-2.28-2.54-2.37a9.09,9.09,0,0,0-5.06-1.52q-3.4-.22-4.74,1.48a3.24,3.24,0,0,0-.62,3.16q.55,1.66,5.15,5.27l15,10.82a12.64,12.64,0,0,1,5.15,8.7q.59,5.13-3.62,10.5a16.77,16.77,0,0,1-13.42,6.51q-8.51.24-17.63-6.9-7.07-5.53-9-11.63t1.07-9.92a7.62,7.62,0,0,1,4.4-2.91q2.58-.56,9.25.4-5.74-7.24-1-13.33,6.4-8.19,16.06-2.34l.14-.17q-4.29-8.58.82-15.1a14.3,14.3,0,0,1,11.18-5.58,18.83,18.83,0,0,1,12.74,4.18,17.73,17.73,0,0,1,7.06,12.4q6.4-1.85,10.16,1.08a4.55,4.55,0,0,1,1.74,2.95,4.4,4.4,0,0,1-1,3.52,3.92,3.92,0,0,1-2.79,1.63,3.75,3.75,0,0,1-2.73-.73,3.23,3.23,0,0,1-1.24-3.37q.38-2.12-.18-2.55C1780.55,1423.82,1779.33,1423.71,1777.6,1424.05Zm-44.83,19.67a10.66,10.66,0,0,0-10,4.41q-6.21,7.93,4.61,16.4,6.91,5.42,13.94,5.69t10.43-4.06a5.66,5.66,0,0,0,.88-5.77,11.89,11.89,0,0,0-4-5.38c-.74-.58-2.46-1.79-5.18-3.65s-4.72-3.26-6-4.21Zm35.63-32.24q-4.12-3.24-6.75-1.92t-6.45,6.22q-5.54,7.08-6.22,9.84t3.66,6.16c2.95,2.32,5.27,3,7,2.09s4.64-4.09,8.87-9.48q3.93-5,3.49-7.75C1771.66,1414.82,1770.48,1413.1,1768.4,1411.48Z"/><path class="cls-10" d="M1715,1206l31.4-79.79-10-4,1.29-3.28,9.66,3.8a68.22,68.22,0,0,0,13.32,4.12l-18.9,48,.26.1q11.22-9.63,22.82-5.07a20.37,20.37,0,0,1,8.19,6,11.93,11.93,0,0,1,3,9.17q-.53,5-4.43,14.91l-9.6,24.41,8.31,3.27-1.29,3.28-29.11-11.45,1.29-3.29,8.31,3.27,10.08-25.63a140.86,140.86,0,0,0,5.27-15.07q1.15-4.63-4.06-6.69a12.52,12.52,0,0,0-11.33,1.09,26,26,0,0,0-8.8,7.83q-3.1,4.54-7.55,15.88l-5.5,14,8.3,3.27-1.29,3.28-29.94-11.78,1.29-3.29Z"/><path class="cls-10" d="M1470,775.63l17.77,39.15,6.84-3.11,1.2,2.66-24.26,11-1.21-2.66,7.3-3.32-16.2-35.7-7.31,3.32-1.21-2.66,7.41-3.36A67.5,67.5,0,0,0,1470,775.63Zm-19.61-15.33a5.85,5.85,0,0,1-.11-4.73,6.17,6.17,0,0,1,8-3.65,5.85,5.85,0,0,1,3.51,3.22,6,6,0,0,1,.18,4.83,6.33,6.33,0,0,1-8,3.62A6,6,0,0,1,1450.38,760.3Z"/><path class="cls-10" d="M2206.56,1105.39l-37.35,17.69a80.67,80.67,0,0,1-17.1,6.26,24.66,24.66,0,0,1-13.3-.68q-6.29-2.16-8.71-7.29a11.21,11.21,0,0,1-1-7.38,6.56,6.56,0,0,1,3.54-4.85,4.66,4.66,0,0,1,3.8-.15,5.11,5.11,0,0,1,2.86,2.7,4.59,4.59,0,0,1,.33,3.52,3.57,3.57,0,0,1-1.79,2.25,6.13,6.13,0,0,1-2.58.36,6.36,6.36,0,0,0-2.33.25c-.89.42-1,1.27-.44,2.55,1.15,2.42,3.23,3.43,6.26,3s8.63-2.53,16.81-6.4l42.85-20.29-4.42-9.32,2.64-1.25,4.37,9.22A61.57,61.57,0,0,0,2206.56,1105.39Zm14.85-20.22a6.27,6.27,0,0,1,8.24,2.95,6.09,6.09,0,0,1,.24,4.74,5.89,5.89,0,0,1-3.16,3.56,6,6,0,0,1-4.83.25,6.09,6.09,0,0,1-3.49-3.23,6,6,0,0,1-.25-4.73A6.08,6.08,0,0,1,2221.41,1085.17Z"/><path class="cls-10" d="M1422.28,1025l-8.82-70.47-8.19,1-.36-2.9,7.56-1a84.12,84.12,0,0,0,11.56-2.31l9.28,74.22,7.34-.92.36,2.9-26.56,3.33-.36-2.9Zm31-3.88-21.46-19.67,16-19.16-9.56,1.19-.36-2.9,24-3,.36,2.9-10.81,1.35-11.16,13.24,26.84,24.31,5-.63.37,2.9-27,3.38-.36-2.9Z"/><path class="cls-10" d="M2028.85,1004.39l98.54-70.84-8.18-11.37,4.06-2.91,7.83,10.89q7.89,11,12.68,15.13L2040,1019.9l8.06,11.21L2044,1034l-27.38-38.1,4.05-2.91Z"/><path class="cls-10" d="M2029.38,837.42l14.36-36.48-7.52-3,1.07-2.72,4.69,1.84a106.81,106.81,0,0,0,13.5,4.52l-4.05,10.29.21.08q8.27-8.62,19.09-4.37,11.79,4.64,8.71,16l.22.09q8.94-9.1,19.71-4.87a14.34,14.34,0,0,1,7.14,5.58,10.56,10.56,0,0,1,1.87,7.14,52.77,52.77,0,0,1-3.32,10.71l-8.48,21.54,7.42,2.92-1.08,2.72-24.8-9.76,1.07-2.72,7,2.75,10.37-26.35c1.64-4.16,2.52-7.11,2.66-8.87s-.85-3-2.94-3.87q-4.32-1.7-10.81,1.39t-11.85,16.74l-5.46,13.87,6.88,2.7L2074,858.1l-24.16-9.5,1.07-2.72,6.94,2.72,8.12-20.64q4.74-12,4.77-14.69c0-1.76-1.08-3.07-3.29-3.94a10.86,10.86,0,0,0-9.49.88,19.7,19.7,0,0,0-7.28,6.13,67,67,0,0,0-5.57,11.73l-5.29,13.44,6.88,2.71-1.07,2.72-24.8-9.76,1.07-2.72Z"/><path class="cls-10" d="M2079,766.13l29.49-25.83-5.36-6.13,2.2-1.92,3.43,3.92a105.52,105.52,0,0,0,9.9,10l-8.4,7.36.15.17q12.72-3.3,19.83,4.81a12.87,12.87,0,0,1,1.85,15.25q-1.86,3.19-7.37,8l-18.11,15.87,5.89,6.72-2.2,1.93L2092,785.43l2.2-1.93,5,5.74,21.56-18.89q5-4.33,6.31-6.63t-1-4.91q-3.66-4.18-10.88-3.77t-14.46,6.76l-14.48,12.69,4.94,5.65-2.19,1.93-17.64-20.14,2.2-1.92Z"/><path class="cls-10" d="M1795.38,1362.27a23.2,23.2,0,0,1,12.53-13.21,22.7,22.7,0,0,1,18.28-.29,23,23,0,0,1,13.1,12.33,22.37,22.37,0,0,1,.26,18.06,23.75,23.75,0,0,1-13,13.58,22.9,22.9,0,0,1-18.24.49,22.42,22.42,0,0,1-12.75-12.5A23.26,23.26,0,0,1,1795.38,1362.27Zm32,12.59q3.86-9.81,4.43-13.22a9,9,0,0,0-1-6.16,10.74,10.74,0,0,0-5.65-4.35,10.89,10.89,0,0,0-7.07-.6,8.54,8.54,0,0,0-5,3.84q-1.82,2.91-5.68,12.73t-4.43,13.35a8.93,8.93,0,0,0,1.18,6.25,10.72,10.72,0,0,0,5.39,4.22,10.94,10.94,0,0,0,6.94.6,8.74,8.74,0,0,0,5.16-3.88Q1823.55,1384.63,1827.38,1374.86Z"/><path class="cls-10" d="M1828.55,1203.33l-18,29.2,7.91,4.86-1.71,2.79-24-14.74,1.71-2.79,6.59,4.06,36.08-58.69-7.22-4.45,1.53-2.49,5.52,3.4a107,107,0,0,0,11.57,6.24l-4.75,7.71.2.12q9.15-5.8,17.6-.61,6.93,4.26,8.66,13.22a23,23,0,0,1-3.15,16.88,24.35,24.35,0,0,1-14.72,11.09q-9.54,2.65-16.57-1.67-7.38-4.53-7.13-14Zm27-.86a108.29,108.29,0,0,0,7-12.55,8.4,8.4,0,0,0,.48-6,7.4,7.4,0,0,0-3.16-4,11.59,11.59,0,0,0-9.62-1.54,19,19,0,0,0-7.57,3.89,40,40,0,0,0-6.37,8.4,48.31,48.31,0,0,0-5,10,12,12,0,0,0,.52,8.09,13.3,13.3,0,0,0,5.55,6.67,6.94,6.94,0,0,0,7.8.12Q1849,1213.16,1855.6,1202.47Z"/><path class="cls-10" d="M1805.29,946.64l-.23,0q-5.64,7.61-14.24,6.65-8.21-.93-14.09-8.88a24.37,24.37,0,0,1-4.78-17.81,22.93,22.93,0,0,1,7.91-15.23q6.87-6,15-5.1,9.86,1.11,13.5,11.32l.23,0,1-9a121.23,121.23,0,0,0,13,2.21l6.43.72-.32,2.9-8.43-.94-7.69,68.46,7.75.87-.36,3.25-28-3.14.37-3.25,9.22,1Zm1.66-14.81a39.91,39.91,0,0,0,.12-10.57,19.22,19.22,0,0,0-3.58-7.72,11.51,11.51,0,0,0-8.5-4.68,7.33,7.33,0,0,0-5.07,1.28,8.81,8.81,0,0,0-3.3,5.45,127.39,127.39,0,0,0-2.06,13.73q-1.39,12.48.15,16.66a6.91,6.91,0,0,0,6.17,4.7,13.33,13.33,0,0,0,8.51-1.84,12,12,0,0,0,5.35-6.07A47.94,47.94,0,0,0,1807,931.83Z"/><path class="cls-10" d="M1892.56,1426.42l-6.15-43.55-10.32,1.46-.45-3.25,10.44-1.47a68.52,68.52,0,0,0,12.1-2.56l1.7,12,.26,0q2.74-12.66,11.48-13.89a8.39,8.39,0,0,1,6.47,1.45,7.76,7.76,0,0,1,3.12,5.31,6.79,6.79,0,0,1-1.18,5.2,6.67,6.67,0,0,1-4.61,2.56q-5.48.78-6.25-4.7l-.13-2.77c-.14-1-.65-1.4-1.54-1.28q-2.1.3-4.55,6.43t-.8,17.77l2.76,19.55,10.56-1.5.46,3.25-33.23,4.69-.46-3.25Z"/><path class="cls-10" d="M1556.18,673.4l5.59,18.12-3.32,1q-8.58-14.62-23-10.17a17.06,17.06,0,0,0-9.39,6.48q-3.15,4.56-1.85,8.77a6.8,6.8,0,0,0,4.69,4.71q3.58,1.15,15-.79,25.1-4.47,31,14.53a22.47,22.47,0,0,1-1.39,17.71,22.06,22.06,0,0,1-13.62,11.12q-9.15,2.82-20-2l-4.16,6.6-2.84.87-7.36-23.86,2.83-.87q14,20.74,30.44,15.67a18.84,18.84,0,0,0,10.1-7.46q3.87-5.53,2.22-10.88a8.22,8.22,0,0,0-5.1-5.78q-3.73-1.32-17.68.86-23.76,3.71-29-13.2a19,19,0,0,1,1.79-15.84,22.2,22.2,0,0,1,13.19-10.23,22.47,22.47,0,0,1,17.51,1.32,23.5,23.5,0,0,0,1.82-5.87Z"/><path class="cls-10" d="M2247.38,973.75l-14.44,8.78,9.14,15-3.23,2-9.14-15-31.35,19.08q-6.9,4.2-8.88,6.66t.45,6.45a11.63,11.63,0,0,0,5.59,4.62,14.49,14.49,0,0,0,8.88.46l1.65,2.73q-14.06,4.56-23-10.2-3.77-6.21-3.3-10.49a10.73,10.73,0,0,1,3.37-6.95,55,55,0,0,1,8.52-6.1l30.6-18.61-6.86-11.28,3.23-2,6.86,11.27,13.36-8.13A83.83,83.83,0,0,0,2247.38,973.75Z"/><path class="cls-10" d="M1501.38,1089.11l4.4,41.89,7.7-.81.3,2.91-7.69.81q-8.89.93-11.16,1.86l-1.11-10.6-.23,0q-4,11.13-15,12.29-6.33.67-10.52-2.26t-5.33-13.65l-2.65-25.19-8.27.87-.3-2.91,19.38-2,3.17,30.1q.73,7.06,1.88,9.69t4.67,2.24q5.25-.55,9.1-6.63t2.67-17.37l-1.8-17.16-9.12,1-.31-2.91Z"/><path class="cls-10" d="M2011.15,1448.82l-48.74,4.88-.79-1.27,25.5-42-3.68-5.87,2.48-1.55,14.93,23.85-2.48,1.55-4.59-7.34L1975.9,1450l33.7-3.64L2005,1439l2.48-1.55,9.88,15.79-2.47,1.55Z"/><path class="cls-10" d="M1674.34,1384.3l-28,79.59-3.53.08-25.25-56-21.33,57.11-3.42.08-35-78-13,.32-.13-5.29,48.25-1.19.13,5.29-14,.35,22.73,50.62,21.34-57,3.32-.08,25,55.86,17.84-51.62-15,.37-.13-5.29,32.69-.8.13,5.29Z"/><path class="cls-10" d="M1998.07,915.86l-2.41,47.2,6.25,5.83-3.1,3.32-30.52-28.5,3.09-3.31,8.53,8,1.64-31.11-32.16,2.62,10.28,9.6-3.1,3.32-24-22.42,3.09-3.31,9.9,9.23,36.11-2.95,2.51-44.3-7.35-6.87,3.09-3.31,31.7,29.58-3.1,3.32-8.65-8.08-1.69,28,29.15-2.39-10-9.3,3.1-3.32,23.56,22-3.1,3.32-9.7-9Z"/><path class="cls-10" d="M2217.89,826.45l-5.11,34.84,29.58-17.42-8.13-5.79,1.7-2.38,16.53,11.77-1.7,2.38-6.21-4.42-49.17,29.23q-10.58,6.26-16,7.89a10.36,10.36,0,0,1-9.48-1.26,6,6,0,0,1-2.75-4.39,6.64,6.64,0,0,1,1.19-4.6,5,5,0,0,1,3.36-2.19,4.95,4.95,0,0,1,5.7,5.48c-.15,2,.05,3.19.61,3.59q1.26.9,4.33-.36a98.86,98.86,0,0,0,10.74-5.79l7.93-4.7,7-48.9-5.56-3.95,1.7-2.39,22.46,16-1.7,2.38Z"/><path class="cls-10" d="M1987.39,680.93l6.57-16.7,35.79,14.08-.9,2.3-40.31,27.13,7.31,2.88q6.62,2.6,11.61,1.09t10.82-10.19l2,.8-7,17.92-37.44-14.74,1.07-2.72,40-26.75-7.31-2.87a23.49,23.49,0,0,0-6.36-1.67,10.46,10.46,0,0,0-6.36,1.93q-3.59,2.19-7.3,8.37Z"/></svg>