<svg width="137" height="39" viewBox="0 0 137 39" fill="none" xmlns="http://www.w3.org/2000/svg">
<path d="M0 9.97697H8.15281L12.8853 22.1023L17.6874 9.97697H25.6329L13.6799 38.7188H5.69988L8.98187 31.1186L0 9.97697ZM33.889 9.49329C27.7744 9.49329 23.9055 14.9861 23.9055 20.4441C23.9055 26.5932 28.1546 31.4643 33.7854 31.4643C38 31.4643 39.5891 28.9078 39.5891 28.9078V30.9116H46.7052V9.97697H39.5891V11.8769C39.5543 11.8769 37.7927 9.49329 33.889 9.49329ZM35.409 16.2296C38.2418 16.2296 39.6926 18.4752 39.6926 20.4787C39.6926 22.655 38.1383 24.797 35.409 24.797C33.1637 24.797 31.1254 22.9661 31.1254 20.5825C31.1254 18.164 32.7493 16.2298 35.409 16.2298V16.2296ZM49.1237 30.9113V0.71875H56.551V11.946C56.551 11.946 58.3126 9.49329 62.009 9.49329C66.5344 9.49329 69.1947 12.8788 69.1947 17.6806V30.9116H61.8017V19.477C61.8017 17.8532 61.0419 16.2641 59.28 16.2641C57.4836 16.2641 56.551 17.8532 56.551 19.477V30.9116H49.1237V30.9113ZM81.8727 9.49356C74.8598 9.49356 70.68 14.8136 70.68 20.5482C70.68 27.0426 75.7236 31.4991 81.9072 31.4991C87.8837 31.4991 93.0999 27.25 93.0999 20.6517C93.0999 13.4318 87.6071 9.49356 81.8727 9.49356ZM81.9417 16.2646C84.4289 16.2646 86.1218 18.3371 86.1218 20.5134C86.1218 22.3789 84.5327 24.6935 81.9417 24.6935C79.5581 24.6935 77.7964 22.7935 77.7964 20.4789C77.7964 18.3026 79.2472 16.2643 81.9417 16.2643V16.2646ZM105.467 9.49356C98.4544 9.49356 94.2743 14.8136 94.2743 20.5482C94.2743 27.0426 99.318 31.4991 105.502 31.4991C111.478 31.4991 116.695 27.25 116.695 20.6517C116.695 13.4318 111.236 9.49356 105.467 9.49356ZM105.536 16.2646C108.024 16.2646 109.716 18.3371 109.716 20.5134C109.716 22.3789 108.127 24.6935 105.536 24.6935C103.153 24.6935 101.391 22.7935 101.391 20.4789C101.391 18.3026 102.876 16.2643 105.536 16.2643V16.2646ZM122.567 21.4808C125.296 21.4808 127.507 23.6916 127.507 26.4209C127.507 29.1497 125.296 31.3608 122.567 31.3608C119.838 31.3608 117.627 29.1499 117.627 26.4209C117.627 23.6916 119.838 21.4808 122.567 21.4808H122.567ZM129.131 19.6844H120.252L128.129 0.71875H136.973L129.131 19.6841V19.6844Z" fill="#5F01D1"/>
</svg>
