<svg width="153" height="35" viewBox="0 0 153 35" fill="none" xmlns="http://www.w3.org/2000/svg">
<path d="M47.477 5.59212C47.1985 4.563 46.6552 3.62479 45.9013 2.87094C45.1474 2.11709 44.2092 1.5739 43.18 1.29546C39.4122 0.268066 24.2495 0.268066 24.2495 0.268066C24.2495 0.268066 9.08619 0.299245 5.31897 1.32664C4.28988 1.60512 3.3517 2.14833 2.59786 2.90218C1.84401 3.65603 1.3008 4.59421 1.02232 5.6233C-0.117322 12.3177 -0.559459 22.5177 1.05349 28.944C1.33197 29.9731 1.87519 30.9113 2.62903 31.6651C3.38288 32.419 4.32106 32.9622 5.35015 33.2407C9.11767 34.2681 24.2807 34.2681 24.2807 34.2681C24.2807 34.2681 39.4437 34.2681 43.2112 33.2407C44.2403 32.9622 45.1785 32.419 45.9323 31.6651C46.6862 30.9113 47.2294 29.9731 47.5079 28.944C48.7096 22.2404 49.0801 12.0466 47.4767 5.59242L47.477 5.59212Z" fill="#FF0000"/>
<path d="M19.4229 24.5544L32.0016 17.2688L19.4229 9.98285V24.5544Z" fill="white"/>
<path d="M145.866 10.1374C147.516 10.1374 148.761 10.4486 149.633 11.0401C150.505 11.6319 151.127 12.5657 151.501 13.8426C151.875 15.1191 152.03 16.8624 152.03 19.1042V22.7473H144.028V23.868L144.153 26.9505C144.246 27.6355 144.402 28.1338 144.651 28.4449C144.9 28.7564 145.305 28.912 145.834 28.912C146.551 28.912 147.049 28.632 147.298 28.0717C147.578 27.5111 147.702 26.5769 147.734 25.3004L151.875 25.5495C151.906 25.7363 151.906 25.9854 151.906 26.2966C151.906 28.2582 151.376 29.7218 150.287 30.6868C149.197 31.6518 147.702 32.1501 145.741 32.1501C143.375 32.1501 141.724 31.403 140.79 29.9397C139.856 28.4761 139.358 26.1719 139.358 23.0897V19.3222C139.464 14.0293 140.395 10.1528 145.866 10.1374ZM88.2956 10.5421V26.141C88.2956 27.0752 88.3889 27.7602 88.6068 28.1649C89.049 29.0305 90.1949 28.8093 90.8175 28.3829C91.177 28.1399 91.4668 27.8072 91.6581 27.4178V10.5418H96.4219V31.8074H92.6855L92.2808 29.192H92.1876C91.1602 31.1536 89.6342 32.1498 87.6106 32.1498C84.4958 32.1421 83.7335 29.8978 83.5521 27.6186L83.5402 27.4579C83.5178 27.1127 83.5046 26.767 83.5007 26.421V10.5421H88.2953H88.2956ZM112.862 10.5421V26.141C112.862 27.0752 112.955 27.7602 113.173 28.1649C113.615 29.0305 114.761 28.8093 115.384 28.3829C115.743 28.1399 116.033 27.8072 116.224 27.4178V10.5418H120.988V31.8074H117.252L116.847 29.192H116.754C115.726 31.1536 114.2 32.1498 112.177 32.1498C109.062 32.1421 108.3 29.8978 108.118 27.6186L108.106 27.4579C108.084 27.1127 108.071 26.767 108.067 26.421V10.5421H112.862ZM74.4712 10.1374C76.0281 10.1374 77.3046 10.4486 78.2387 11.1024C79.1726 11.7563 79.8888 12.7528 80.3247 14.1226C80.7606 15.4926 80.9786 17.3295 80.9786 19.6025V22.6847C80.9786 24.9577 80.7606 26.7637 80.3247 28.1335C79.8888 29.5038 79.2038 30.5 78.2387 31.1539C77.2737 31.7766 75.9657 32.1189 74.3468 32.1189C72.6653 32.1501 71.3576 31.8077 70.3925 31.1851C69.4275 30.5312 68.7421 29.5347 68.3377 28.1649C67.9327 26.7949 67.7459 24.9889 67.7459 22.7162V19.6334C67.7459 17.3603 67.9639 15.4923 68.431 14.1223C68.898 12.7213 69.614 11.7248 70.6105 11.1024C71.6067 10.4795 72.8832 10.1371 74.4712 10.1371V10.1374ZM128.461 1.60614V12.8149H128.492C128.928 12.0054 129.488 11.3516 130.267 10.8533C130.994 10.3645 131.85 10.1043 132.726 10.1062C133.878 10.1062 134.75 10.4174 135.404 11.0089C136.058 11.6319 136.525 12.5969 136.805 13.9358C137.077 15.2328 137.231 17.0266 137.24 19.2886L137.241 19.5093V22.8718C137.241 26.0163 136.836 28.3517 136.089 29.8462C135.311 31.3407 134.127 32.088 132.508 32.088C131.605 32.088 130.796 31.8701 130.049 31.4654C129.388 31.0803 128.84 30.5281 128.46 29.8643L128.398 29.7526H128.305L127.807 31.7766H123.852V1.60644H128.461V1.60614ZM109.405 2.69589V6.55635H104.673V31.8074H100.003V6.55665H95.2389V2.69619H109.406L109.405 2.69589ZM58.0626 2.69589L58.0655 2.70777C58.111 2.90998 58.7405 5.7086 59.4329 8.96925L59.4876 9.22758L59.5701 9.61805L59.6253 9.88025L59.653 10.0118L59.7082 10.2755L59.7358 10.4076L59.7907 10.6722L59.8709 11.0591C60.3386 13.317 60.7849 15.5814 61.0518 17.205H61.1765C61.4322 15.7486 61.8037 13.8847 62.1998 11.9817L62.3037 11.4846C62.356 11.2358 62.4082 10.9869 62.4611 10.7387L62.5424 10.3536C63.0803 7.83164 63.6343 5.31318 64.2044 2.79834L64.2133 2.75825L64.2275 2.69589H68.9913L63.4802 22.3426V31.7766H58.7788V22.3735H58.7476L53.2988 2.6956H58.0626V2.69589ZM74.3777 13.4375C73.7238 13.4375 73.2879 13.7802 73.0079 14.4964C72.7276 15.2123 72.6032 16.3021 72.6032 17.828V24.4598C72.6032 26.0166 72.7276 27.1684 72.9767 27.8537C73.2259 28.5385 73.693 28.8811 74.3777 28.8811C75.0315 28.8811 75.4986 28.5385 75.7789 27.8537C76.0592 27.1684 76.1836 26.0166 76.1836 24.4598V17.8277C76.1836 16.3021 76.0589 15.1811 75.7789 14.4961C75.4986 13.7802 75.0315 13.4375 74.3777 13.4375ZM129.301 14.0605C128.922 14.4109 128.652 14.8429 128.491 15.3831L128.461 15.4926V27.5731C128.847 28.227 129.395 28.6629 130.36 28.6941C130.858 28.6941 131.263 28.5073 131.574 28.1338C131.885 27.7602 132.103 27.1372 132.228 26.2654C132.348 25.4287 132.41 24.276 132.415 22.8079V19.8516C132.415 18.1704 132.352 16.8939 132.259 15.9909C132.134 15.0879 131.979 14.434 131.699 14.0605C131.157 13.2819 129.986 13.2914 129.301 14.0605ZM145.772 13.3443C145.243 13.3755 144.869 13.5311 144.651 13.8114C144.402 14.1226 144.246 14.5896 144.153 15.2747C144.061 15.9457 144.03 18.2915 144.028 18.3854V19.914H147.516V18.5659V18.5917C147.513 19.063 147.504 18.3183 147.482 17.404L147.479 17.2811C147.46 16.4776 147.431 15.5817 147.391 15.2747C147.298 14.5585 147.142 14.0602 146.893 13.7802C146.644 13.4999 146.27 13.3443 145.772 13.3443H145.772Z" fill="#282828"/>
</svg>
